<svg width="154" height="127" viewBox="0 0 309 257" fill="none" xmlns="http://www.w3.org/2000/svg">
<path d="M276.941 79.8269C269.308 77.646 261.457 79.3907 253.606 78.9545C246.191 78.5184 239.43 74.8108 232.233 73.0661C231.797 73.0661 231.36 72.848 230.924 72.848C228.743 68.7043 229.616 63.6882 232.451 60.1988C233.978 58.236 236.158 57.1455 238.557 56.4912C241.829 55.8369 245.1 56.055 248.153 55.6189C257.967 54.0922 262.984 44.2782 264.946 35.3365C265.819 30.5385 266.255 25.3043 265.601 20.5063C264.946 15.4902 263.202 10.4742 259.058 7.4209C254.478 3.71336 248.153 3.49529 242.483 3.2772C235.286 3.05911 228.089 3.05911 220.674 3.2772C206.28 3.71338 192.104 4.8038 177.71 5.02189C170.731 5.23998 163.534 5.24004 156.556 4.80386C149.359 4.36768 142.38 3.71338 135.183 3.2772C127.986 2.84102 121.007 2.40486 113.81 2.62295C106.613 2.84104 99.634 3.49529 92.6551 4.36765C85.6762 5.24001 78.6973 6.33045 71.7184 7.4209C65.83 8.29326 59.0692 8.94756 54.0531 12.2189C49.6913 15.0541 47.2924 20.0701 46.2019 25.0862C45.7657 27.7033 45.3295 30.3204 45.3295 32.9375C45.1114 35.7727 45.1114 38.6078 45.3295 41.443C45.9838 47.1133 50.3456 50.3847 55.5798 51.9113C61.9044 53.656 68.4471 54.5284 74.9898 55.1827C76.7345 55.4007 78.4792 55.4008 80.2239 55.6189C80.442 63.9063 80.6602 72.4118 81.0964 80.6992C73.6813 81.3535 66.2662 82.2259 58.8511 83.3164C53.8351 83.9706 49.037 84.8429 44.2391 85.9334C39.6592 86.8058 35.0793 87.6781 30.7175 89.2048C27.01 90.5133 23.5205 92.4761 20.6853 95.0932C18.0683 97.7103 16.1055 100.764 14.5788 104.253C11.0894 111.886 9.78081 120.174 8.47227 128.461C5.20091 147.871 3.45621 167.717 3.89239 187.345C4.11048 197.159 4.54667 206.973 5.63712 216.569C6.50948 223.766 7.59991 231.181 11.3074 237.288C13.0522 240.341 15.2331 242.958 18.0682 244.921C21.7758 247.32 26.1376 248.411 30.2813 249.283C32.026 249.501 33.7707 249.937 35.5154 250.155C35.5154 250.81 35.7335 251.246 36.6059 251.246C62.5586 252.336 88.5114 252.554 114.682 252.118C116.209 252.336 117.954 252.554 119.698 252.554C123.842 252.772 127.986 252.336 132.129 252.118C136.491 251.9 140.635 251.682 144.997 251.246C146.523 251.246 148.268 251.028 149.795 251.028C173.567 250.155 197.12 249.283 220.892 248.193C227.217 247.974 233.323 247.756 239.648 247.538C242.265 247.538 244.882 247.538 247.717 247.756C255.132 247.974 262.329 248.847 269.744 248.629C276.069 248.411 282.612 247.32 288.064 244.049C301.149 235.761 302.022 218.096 301.586 204.138C301.149 187.345 300.931 170.552 302.022 153.759C303.112 137.839 305.729 121.264 300.931 105.78C297.224 94.2208 288.936 83.0983 276.941 79.8269Z" fill="white"/>
<path d="M285.664 218.75C283.919 217.878 281.738 218.532 279.775 218.969C273.887 220.495 267.999 222.676 261.892 223.548C260.365 223.548 258.621 223.33 257.094 223.112C253.387 222.676 249.025 222.24 246.19 225.293C245.099 226.384 244.445 228.128 244.663 229.655C244.881 231.182 245.971 232.272 247.28 232.926C248.589 233.581 250.333 234.017 251.86 234.017C254.041 234.235 256.222 234.235 258.184 234.235C262.546 234.235 266.69 233.799 271.052 232.926C273.233 232.49 275.196 232.054 277.376 231.4C279.339 230.745 281.302 230.091 283.047 229.219C284.573 228.346 286.1 227.474 287.191 225.947C288.063 224.639 288.281 223.112 288.063 221.804C287.845 220.495 286.972 219.187 285.664 218.75Z" fill="black"/>
<path d="M201.045 208.064C201.917 208.282 203.007 208.5 204.316 208.5C206.279 208.5 208.46 208.5 209.768 207.191C211.077 205.883 211.295 203.92 211.513 201.957C212.167 193.015 212.821 183.856 213.258 174.914C213.476 170.552 213.694 165.972 213.694 161.61C213.912 157.685 214.784 153.541 214.784 149.615C215.439 143.291 216.311 137.184 217.401 130.86C219.364 138.275 221.545 145.69 224.162 152.887C225.471 157.03 226.997 160.956 228.524 164.882C229.396 166.845 230.051 168.807 230.923 170.77C231.577 172.515 232.45 174.26 233.54 175.786C235.503 178.839 238.774 181.457 242.482 181.238C246.189 181.457 249.461 178.839 251.423 175.786C252.514 174.26 253.168 172.515 254.041 170.77C254.913 168.807 255.567 166.845 256.44 164.882C257.966 160.956 259.493 156.812 260.801 152.887C263.418 145.69 265.599 138.275 267.562 130.86C268.653 137.184 269.525 143.291 270.179 149.615C272.142 167.281 272.796 185.382 273.451 203.266C273.451 204.574 273.669 205.883 274.541 206.755C275.413 207.627 276.722 207.627 278.03 207.409C279.993 207.409 281.738 207.191 283.701 207.191C285.009 207.191 286.318 206.973 287.19 206.319C288.717 205.01 288.499 202.829 288.281 200.867C286.536 190.18 285.664 179.494 284.573 168.807C283.265 157.685 281.956 146.344 279.993 135.44C279.557 132.822 279.121 130.205 278.467 127.806C278.03 125.625 277.158 123.226 276.068 121.264C273.232 116.466 267.998 114.503 263.418 118.428C261.019 120.391 259.711 123.226 258.62 126.062C253.604 138.929 247.934 151.578 242.7 164.446C240.301 160.956 239.21 155.722 237.466 151.796C235.503 146.998 233.54 142.2 231.577 137.62C229.178 131.95 226.997 126.28 223.726 121.046C222.199 118.428 219.582 116.248 216.529 116.248C214.566 116.466 212.821 117.556 211.513 119.083C210.204 120.609 209.55 122.572 208.896 124.317C204.752 136.094 203.225 149.179 201.263 161.61C200.172 169.462 199.3 177.095 198.428 184.946C197.991 188.872 197.773 192.797 197.337 196.723C196.901 201.739 196.465 206.537 201.045 208.064Z" fill="black"/>
<path d="M155.9 203.702C155.9 204.792 156.118 205.665 156.118 206.755C156.118 207.41 170.73 206.973 172.039 206.973C177.709 206.973 183.161 206.755 188.832 206.319C189.05 206.319 189.486 206.319 189.704 206.101C189.922 205.883 189.922 205.447 189.922 205.011C189.922 201.957 189.704 198.904 189.486 195.851C189.486 195.415 189.486 194.978 189.05 194.76C188.613 194.324 187.959 194.324 187.523 194.324C181.198 194.542 174.874 194.76 168.331 194.978C168.331 194.324 168.331 193.67 168.113 193.016C167.677 186.037 167.895 179.276 167.895 172.297C167.895 165.536 167.677 158.775 167.895 152.015C167.895 144.163 168.113 136.312 168.331 128.461C168.331 126.498 168.549 124.535 168.549 122.79C168.549 121.264 168.549 119.955 167.895 118.647C166.586 115.812 163.315 115.812 160.698 116.03C156.554 116.466 156.118 118.211 155.9 122.354C155.246 136.312 155.028 150.052 155.028 164.01C155.028 170.988 155.028 177.967 155.246 184.946C155.464 191.053 155.464 197.377 155.9 203.702Z" fill="black"/>
<path d="M101.813 203.92C101.813 204.138 101.813 204.356 101.813 204.793C101.813 205.447 101.813 206.319 102.249 206.755C102.904 207.41 103.776 207.41 104.648 207.41C107.047 207.41 109.664 207.41 112.063 207.192C113.154 207.192 114.026 207.192 114.899 206.537C116.207 205.447 115.117 202.175 115.117 200.649C115.117 197.596 114.899 194.542 114.899 191.271C114.899 185.164 115.117 179.276 115.335 173.169C115.335 172.733 115.335 172.515 115.335 172.079C117.734 172.297 120.133 172.297 122.532 172.079C125.803 172.079 129.074 171.861 132.346 171.425C132.782 171.425 133.218 171.207 133.654 171.207C134.309 181.239 135.181 191.489 135.835 201.521C135.835 202.83 136.053 204.356 136.053 205.665C136.053 205.883 136.271 206.101 136.489 206.101C138.234 206.101 140.197 205.883 141.942 205.883C143.25 205.883 144.995 205.883 145.867 204.793C146.74 203.484 146.304 201.739 146.304 200.431C146.304 198.686 146.085 196.723 146.085 194.76C145.649 187.345 144.995 179.93 144.559 172.515C143.904 165.1 143.25 157.685 142.378 150.27C141.942 146.562 141.506 142.855 141.069 139.365C140.633 135.876 139.979 132.387 139.106 128.897C137.58 123.663 134.745 118.211 129.074 116.466C124.058 114.939 118.606 117.12 114.68 120.392C110.101 124.317 107.92 130.424 106.611 136.094C105.957 139.365 105.521 142.419 104.866 145.69C104.43 149.398 103.994 152.887 103.558 156.595C102.685 164.01 102.249 171.207 102.031 178.622C102.031 187.345 102.249 195.633 101.813 203.92ZM127.548 130.642C128.42 133.041 129.074 135.658 129.729 138.275C131.473 145.69 132.346 153.541 133 161.174C127.984 162.265 122.75 162.701 117.516 162.701C117.079 162.701 116.643 162.701 116.207 162.701C116.861 155.722 117.734 148.525 118.824 141.546C119.26 138.929 119.696 136.312 120.133 133.477C120.569 131.296 121.005 128.679 123.186 127.807C124.058 127.371 125.149 127.37 126.021 128.243C126.893 128.461 127.33 129.551 127.548 130.642Z" fill="black"/>
<path d="M87.6372 227.474C86.3286 227.91 85.4562 229 85.02 230.963C84.802 232.272 84.8019 233.798 84.8019 235.107C84.8019 236.851 85.0201 239.032 86.5467 240.123C87.4191 240.777 88.7276 240.777 89.8181 240.777C96.7969 240.559 103.558 240.995 110.755 240.559C112.281 240.559 114.244 240.559 115.771 240.123C116.861 239.687 117.734 239.032 118.388 237.942C119.042 236.852 119.26 235.761 119.478 234.452C119.696 233.144 119.914 231.835 119.696 230.527C119.26 227.692 115.989 227.474 113.59 227.256C110.1 227.037 106.393 226.819 102.903 226.819C99.414 226.819 95.7064 226.819 92.217 227.037C90.6904 226.819 88.9457 226.819 87.6372 227.474Z" fill="black"/>
<path d="M53.179 121.264C49.2534 125.407 46.4182 130.423 44.4554 135.876C42.2745 141.982 40.966 148.525 40.5298 155.068C40.0937 161.174 40.0937 167.281 40.5298 173.169C40.966 178.403 41.8384 183.856 43.5831 188.872C44.6735 192.143 46.2002 195.196 47.9449 197.813C49.9077 201.739 52.7429 205.228 56.4504 207.409C58.4132 208.5 60.8122 209.372 63.2112 209.59C73.2434 210.681 83.0574 205.228 88.2916 196.941C94.6162 186.909 94.6162 170.116 85.0202 162.046C82.4032 159.866 79.1318 158.339 75.6424 157.903C78.2595 155.722 80.6584 152.887 82.4031 150.052C85.6745 144.817 87.8554 138.711 88.0735 132.604C88.0735 127.152 86.1107 121.264 81.967 117.556C78.0414 114.067 72.371 112.758 67.1368 113.63C61.6845 114.503 56.8866 117.338 53.179 121.264ZM68.8816 122.79C72.371 122.354 74.9881 125.189 76.0785 128.242C77.169 131.95 75.8605 136.094 74.3338 139.583C73.0253 142.636 71.2806 145.472 69.0997 148.089C64.956 153.323 59.5037 157.467 53.3971 160.084C52.7429 160.302 51.8705 160.738 51.2162 160.956C51.6524 157.248 52.0886 153.541 52.9609 150.052C53.8333 146.344 55.1419 142.418 56.4504 138.929C57.7589 135.44 59.5037 131.95 61.4665 128.679C62.9931 126.062 65.6102 123.226 68.8816 122.79ZM53.8334 171.424C56.6685 169.025 59.9399 166.844 63.6474 165.536C67.1369 164.445 70.8444 164.446 74.1157 165.972C75.6424 166.626 76.9509 167.935 78.0413 169.244C79.1318 170.77 79.568 172.297 79.7861 174.041C80.0042 175.786 80.0042 177.531 80.0042 179.494C80.0042 181.457 79.7861 183.419 79.3499 185.382C78.6956 189.09 77.6052 193.015 74.9881 195.85C72.5891 198.468 69.5358 199.994 66.0464 199.558C62.5569 199.34 59.2856 197.159 57.1047 194.76C54.7057 191.925 53.1791 188.217 52.3067 184.728C51.4343 181.238 50.9981 177.749 50.78 174.26C51.6524 173.169 52.7429 172.297 53.8334 171.424Z" fill="black"/>
<path d="M20.0302 127.588C20.4664 127.806 20.9025 127.806 21.3387 127.806C22.6472 127.806 24.1739 127.588 25.4824 127.588C26.1367 127.588 26.791 127.588 27.2271 127.37C29.6261 126.28 29.408 121.7 30.4985 119.737C31.807 116.684 34.206 114.285 37.0412 112.54C42.4935 108.832 52.0894 109.269 54.7065 102.726C55.3608 101.199 56.0151 98.5822 54.4884 97.2737C53.8342 96.6194 52.9618 96.6194 52.0894 96.6194C50.999 96.6194 49.9085 96.8375 48.8181 96.8375C44.2382 97.4918 39.8764 98.8003 35.7326 100.763C34.6422 101.199 33.7698 101.854 32.6794 102.29L32.4613 102.508C30.7166 103.598 28.9719 104.907 27.4452 106.215C21.7749 111.45 19.1578 118.428 19.1578 126.062C19.1578 126.716 19.1578 127.37 19.594 127.806C19.8121 127.588 19.8121 127.588 20.0302 127.588Z" fill="black"/>
<path d="M60.3777 227.474C57.7606 226.82 55.1435 226.82 52.5264 226.602C49.2551 226.384 46.2018 226.166 42.9305 225.948C41.4039 225.729 39.8772 225.729 38.3506 225.511C37.042 225.511 35.7335 225.293 34.4249 224.857C29.6269 223.549 27.8822 218.096 27.8822 213.516C27.8822 209.809 27.6642 206.101 27.6642 202.394C27.6642 201.521 27.6641 200.431 27.0099 199.777C26.3556 198.904 25.0471 199.122 23.9566 199.122C22.43 199.34 20.9033 199.559 19.5948 200.213C18.0682 201.303 17.1958 203.048 16.7597 205.011C15.8873 210.463 16.7596 217.878 18.5044 222.894C19.3767 225.293 20.4672 227.474 22.2119 229.437C23.9566 231.4 26.1375 232.926 28.7546 234.017C31.3717 235.107 34.425 235.98 37.2601 236.416C40.3134 237.07 43.3666 237.506 46.4199 237.724C49.4731 237.942 52.5264 238.379 55.5797 238.379C58.1968 238.379 61.0319 238.161 62.9948 236.634C64.7395 235.325 65.8299 232.926 65.3938 230.745C64.3033 229.219 62.3405 228.128 60.3777 227.474Z" fill="black"/>
<path d="M15.8862 156.813C16.5405 157.685 17.4129 157.903 18.5033 157.903C19.5938 157.903 20.6842 158.121 21.5566 158.121C22.4289 158.121 23.5194 158.121 24.3918 157.685C26.1365 157.031 27.0088 155.068 27.2269 153.323C27.445 150.924 27.445 148.525 27.445 146.344C27.445 144.818 27.445 143.509 27.2269 141.983C27.2269 141.328 27.2269 140.674 27.0088 140.02C27.0088 139.584 26.7908 139.147 26.5727 138.711C26.1365 138.275 25.7003 138.275 25.046 138.275C22.8651 138.275 20.248 137.621 18.0671 138.057C15.6681 138.493 14.7958 140.892 14.5777 142.855C14.3596 144.163 14.3596 145.254 14.3596 146.562C14.1415 149.18 14.1415 151.579 14.5777 154.196C15.0139 155.286 15.2319 156.158 15.8862 156.813Z" fill="black"/>
<path d="M309 133.913C309 127.588 308.781 121.046 308.781 114.721C308.563 109.487 308.345 104.253 307.255 99.2367C306.164 94.4387 304.42 89.6408 300.93 86.1513C297.659 82.4438 293.079 80.0448 288.499 78.5181C283.265 76.7734 277.595 75.683 271.924 75.0287C265.6 74.1563 259.275 73.5021 252.95 73.0659C249.461 72.8478 245.971 72.8478 242.482 72.8478C242.046 68.7041 241.61 64.5604 241.392 60.4167C245.753 59.7624 250.115 58.6719 254.477 57.5815C259.493 56.2729 266.036 54.9644 268.217 49.7302C269.307 47.1131 269.307 44.278 269.525 41.6609C269.525 38.1715 269.525 34.682 269.525 31.1925C269.307 27.485 269.089 23.9956 268.871 20.288C268.653 17.4528 268.435 14.3996 267.78 11.5644C267.126 9.16542 266.254 6.76648 264.509 4.80366C262.764 2.84085 260.147 1.96849 257.748 1.53231C255.131 1.09613 252.296 1.0961 249.679 1.0961C246.19 1.0961 242.7 1.09609 239.211 0.877999C225.035 0.659909 210.859 0.659949 196.683 0.441858C184.47 0.223768 172.039 0.223755 159.826 0.223755C132.564 0.223755 105.521 0.878039 78.26 1.53231C68.446 1.7504 57.7596 2.18653 50.1264 8.29306C45.1103 12.2187 41.839 17.8891 40.3123 23.9956C38.5676 31.1926 39.44 38.8257 40.0942 46.0227C40.5304 51.6931 42.4932 57.5815 47.9455 60.1986C51.8711 62.1614 56.451 62.3795 60.5947 62.1614C64.9565 61.9433 69.3183 61.5071 73.6801 61.9433C74.5525 62.1614 73.6801 73.502 73.6801 74.8106C63.8661 75.4649 54.052 76.7734 44.456 78.7363C39.2219 79.8267 33.7696 80.9171 28.5355 82.6619C24.3918 83.9704 20.2481 85.7151 16.7586 88.3322C14.3596 89.8588 12.1787 91.8216 10.434 94.4387C7.81689 98.8005 6.72642 103.817 5.85406 108.833C4.76361 114.939 3.89126 121.264 3.23698 127.37C1.71035 140.456 0.837985 153.541 0.401804 166.627C-0.0343762 179.712 0.183721 192.797 1.05608 205.883C1.49226 212.426 2.14654 218.968 2.80081 225.511C3.45508 230.745 3.89125 236.197 5.85406 240.995C7.81687 245.575 11.0883 248.847 15.6682 250.809C20.4661 252.772 25.7003 253.427 30.7164 253.863C43.8018 255.389 56.8872 256.044 69.9726 256.48C96.5796 257.134 123.405 256.262 150.012 255.826C176.837 255.389 203.444 254.953 230.269 254.299C245.099 254.081 259.711 253.427 274.759 252.118C282.611 251.464 290.898 250.591 297.223 245.793C301.803 242.086 304.638 236.634 305.946 230.963C307.255 225.293 307.473 219.404 307.473 213.516C307.909 186.691 309 160.302 309 133.913ZM49.0359 24.6498C49.6902 22.4689 50.9988 19.4157 52.7435 17.0167C53.6159 16.1443 54.7063 15.49 55.7968 14.8358C56.451 14.3996 57.1053 14.1815 57.7596 13.9634C57.3234 24.4317 57.7595 38.3895 58.4138 48.6398C58.4138 49.7302 58.6319 50.8207 58.6319 51.9111C57.7595 51.9111 56.8872 51.6931 56.0149 51.6931C54.9244 51.475 53.834 51.2568 52.7435 50.8207C52.3073 50.3845 51.653 49.9483 51.4349 49.2941C50.5626 48.2036 50.1264 46.895 49.4721 45.3684C48.8179 42.097 48.3817 38.8257 48.1636 35.5543C48.1636 32.0649 47.9455 28.1393 49.0359 24.6498ZM255.785 8.94737C257.53 10.0378 259.057 11.5645 259.711 13.5273C260.365 15.7082 260.365 18.1071 260.584 20.288C260.584 21.5966 260.584 22.9051 260.584 24.2137C260.584 26.3946 260.365 28.5755 260.365 30.5383C260.147 34.0277 259.929 37.9533 258.403 41.2247C257.094 44.0599 254.913 46.2408 252.296 47.5493C251.86 47.7674 251.206 47.9855 250.551 48.4217C250.333 37.7353 249.897 27.0488 249.679 16.3624C249.679 13.3092 249.461 10.2559 249.461 6.98457C251.642 7.42075 253.823 7.85691 255.785 8.94737ZM224.381 17.4529C224.381 14.1815 224.381 10.6921 224.381 7.42071C225.907 7.42071 227.434 7.42071 228.96 7.42071C232.886 7.42071 236.812 7.2026 240.737 7.2026C240.737 7.2026 240.737 7.2026 240.955 7.2026C241.173 18.7614 241.392 30.5383 241.61 42.097C241.61 44.9322 241.61 47.9855 241.828 50.8207C241.61 50.8207 241.392 50.8207 241.173 50.8207C235.503 51.0387 229.833 51.2569 224.162 51.475C224.162 40.1343 224.381 28.7936 224.381 17.4529ZM215.875 7.63881C215.875 19.4157 215.657 31.4106 215.657 43.1875C215.657 46.0227 215.657 48.8579 215.657 51.6931C213.476 51.6931 211.295 51.9111 209.114 51.9111C201.699 52.1292 194.284 52.3473 186.869 52.3473C186.869 47.9855 187.087 43.6237 187.087 39.2619C187.087 32.283 187.087 25.086 186.869 18.1071C186.869 14.8358 186.651 11.5644 186.651 8.29306C196.247 8.07496 206.061 7.8569 215.875 7.63881ZM209.332 62.5976V74.1563C209.332 74.8106 209.332 75.4649 209.332 76.1191C205.625 76.1191 201.917 76.1191 198.428 76.1191C198.428 71.7573 198.428 67.3955 198.646 63.0337C202.135 62.8156 205.625 62.5976 209.332 62.5976ZM178.582 8.51116C178.582 14.8358 178.582 21.3785 178.582 27.7031C178.582 34.682 178.582 41.879 178.582 48.8579V52.5654C177.055 52.5654 175.31 52.5654 173.784 52.5654C173.566 47.9855 173.565 43.4056 173.347 38.6077L172.911 17.8891C172.911 14.8358 172.693 11.5644 172.693 8.51116C174.656 8.72925 176.619 8.51116 178.582 8.51116ZM146.086 9.38351C148.267 9.38351 150.448 9.16547 152.847 9.16547C156.336 9.16547 159.826 9.16547 163.315 9.16547C163.533 21.8147 163.751 34.682 163.97 47.3313C163.97 49.076 163.97 51.0388 163.97 52.7835C151.756 53.0016 139.543 53.0016 127.33 53.0016C126.676 53.0016 126.022 53.0016 125.368 53.0016C125.149 41.879 124.931 30.7564 124.713 19.6338C124.713 16.7986 124.495 12.873 124.495 9.81971C131.474 9.81971 138.889 9.6016 146.086 9.38351ZM113.809 10.0378C114.245 22.0328 114.463 35.7724 114.899 47.7674C114.899 49.5121 114.899 51.2568 115.117 53.0016C112.282 53.0016 109.447 53.0016 106.612 53.0016C106.176 42.5332 105.958 32.0649 105.739 21.5966C105.739 18.5433 105.739 13.7453 105.739 10.474C108.575 10.0378 111.192 10.0378 113.809 10.0378ZM93.5263 10.474C95.2711 10.474 96.7977 10.474 98.5425 10.2559C98.5425 22.469 97.8882 36.8629 98.3244 48.8579C98.3244 50.1664 98.5425 51.2569 98.5425 52.5654C95.2711 52.5654 92.2178 52.5654 88.9464 52.3473C88.2922 42.0971 87.856 32.0649 87.2017 21.8147C86.9836 18.9795 86.9836 13.7453 86.7655 10.474C88.9464 10.692 91.3454 10.474 93.5263 10.474ZM66.047 52.1292C65.6108 42.3152 65.1746 32.7192 64.5204 22.9051C64.3023 20.5061 64.3022 15.0539 64.0842 12.2187C65.1746 12.0006 66.047 12.0006 67.1374 12.0006C70.6269 11.7825 74.3344 11.5645 77.8239 11.3464C78.042 22.9052 78.2601 37.5172 78.9143 48.8579C78.9143 49.9483 79.1324 51.2569 79.1324 52.3473C74.9887 52.1292 70.4088 52.1292 66.047 52.1292ZM299.622 203.484C299.622 205.229 299.622 206.973 299.622 208.718C299.622 213.734 299.404 218.532 298.095 223.33C296.35 229.873 291.334 236.634 285.228 239.469C278.467 242.522 270.616 242.304 263.419 242.74C255.567 243.176 247.716 243.394 239.865 243.831C224.381 244.485 208.678 244.921 193.194 245.357C162.007 246.23 130.602 246.448 99.4148 246.448C83.7123 246.448 68.0098 246.23 52.0892 246.011C45.1103 246.011 37.9134 246.011 30.9345 245.357C25.4822 244.921 19.3757 243.613 15.4501 239.251C13.0511 236.634 11.9606 233.144 11.3063 229.655C10.652 225.947 10.2159 222.24 9.77969 218.532C8.90733 210.899 8.25305 203.266 8.03496 195.633C7.38069 180.584 7.59879 165.318 8.68924 150.27C9.34351 142.419 10.2159 134.785 11.3063 126.934C12.1787 120.392 13.0511 113.631 15.4501 107.306C17.849 100.763 22.4289 96.1834 28.9716 93.5664C35.2962 90.9493 42.4932 90.295 49.254 89.4227C64.7385 87.6779 80.4409 87.0237 95.9253 86.1513C108.138 85.497 120.57 84.6247 132.783 83.9704C153.065 83.7523 173.129 83.5343 193.412 83.3162C209.114 83.0981 224.817 83.098 240.519 82.88C247.716 82.88 254.913 82.6619 262.11 82.6619C267.781 82.6619 273.669 83.098 279.339 84.8428C289.59 87.896 295.696 95.7473 297.877 105.998C300.276 118.429 300.276 131.078 300.276 143.509C300.058 163.573 299.84 183.42 299.622 203.484Z" fill="black"/>
</svg>
