<svg width="29" height="27" viewBox="0 0 29 27" fill="none" xmlns="http://www.w3.org/2000/svg">
<path d="M7.04684 18.3267L7.04693 18.3267L7.04962 18.3133C7.16711 17.7258 7.16188 17.1679 6.95884 16.6291C6.76178 16.1061 6.41659 15.7059 6.05564 15.3662L6.0557 15.3661L6.046 15.3573C5.91874 15.2406 5.79177 15.1245 5.66523 15.0088C4.45733 13.9042 3.2878 12.8348 2.26501 11.6522L2.26505 11.6522L2.25848 11.6447C2.05465 11.4137 1.83792 11.0754 1.70135 10.7462C1.63401 10.5839 1.59702 10.4497 1.58279 10.352C1.57582 10.3042 1.57586 10.2762 1.57633 10.2646L1.57784 10.2603L1.57805 10.2596C1.58506 10.2493 1.60162 10.227 1.63425 10.1935C1.70462 10.1211 1.81547 10.032 1.96706 9.93796C2.27482 9.74694 2.64988 9.59701 2.94393 9.53018L2.94394 9.53025L2.95568 9.52744C3.82131 9.31968 4.72386 9.1873 5.67046 9.05864C5.78166 9.04352 5.89363 9.02844 6.00624 9.01327C6.83682 8.9014 7.70188 8.78489 8.54536 8.61619L8.54538 8.61629L8.55877 8.61342C8.96517 8.52633 9.37036 8.33649 9.71298 8.09976C10.0503 7.86669 10.3982 7.53884 10.6237 7.12328C11.5589 5.43938 12.3795 3.68628 13.183 1.96974L13.188 1.9591C13.3982 1.52178 13.5834 1.24004 13.752 1.09248C13.8243 1.02927 13.8708 1.01151 13.8948 1.00542C13.9143 1.00051 13.9642 0.990979 14.0692 1.021L14.0852 1.02557L14.1014 1.02962C14.5656 1.14567 15.1474 1.59361 15.3822 2.01621L15.3911 2.03227L15.4006 2.04799C16.3217 3.5713 17.0708 5.20934 17.8471 6.90986C18.0833 7.42937 18.4072 7.88178 18.886 8.20609C19.3574 8.52546 19.8883 8.65883 20.4308 8.70498C22.2423 8.88632 24.0694 9.13815 25.8133 9.52924C26.0982 9.59783 26.4561 9.74099 26.7431 9.91734C26.8859 10.0051 26.9844 10.0848 27.0423 10.1447C27.0515 10.1542 27.0587 10.1622 27.0643 10.1687C27.075 10.2618 27.064 10.4632 26.956 10.7617C26.8394 11.0842 26.6531 11.3962 26.4662 11.6079L26.4623 11.6124C25.8722 12.2893 25.2147 12.9216 24.5195 13.58C24.4608 13.6356 24.4019 13.6913 24.3427 13.7473C23.7146 14.3414 23.058 14.9623 22.447 15.6246C22.0992 15.9798 21.8814 16.4425 21.7576 16.8552C21.6312 17.2764 21.5687 17.7587 21.6265 18.204C21.7348 19.1216 21.9098 20.0353 22.0769 20.9079C22.088 20.966 22.0991 21.0239 22.1102 21.0816C22.29 22.0222 22.456 22.9175 22.5429 23.8034C22.568 24.0683 22.5423 24.4292 22.4597 24.7493C22.4192 24.9063 22.3714 25.0279 22.3269 25.1104C22.3033 25.1543 22.2864 25.1766 22.2797 25.1848L22.2765 25.1871L22.2658 25.1955C22.2604 25.1981 22.2289 25.2142 22.1583 25.2305C22.0617 25.2529 21.9294 25.2668 21.7706 25.2636C21.4412 25.2568 21.1152 25.1792 20.9139 25.0838L20.8924 25.0736L20.8704 25.0644C19.3651 24.4372 17.9422 23.6433 16.4709 22.8224C16.2818 22.7169 16.092 22.611 15.9011 22.5049C15.409 22.2246 14.8895 22.0486 14.3169 22.0641C13.7516 22.0794 13.2469 22.2788 12.7813 22.5449L12.7793 22.546C11.084 23.5199 9.31043 24.4255 7.52277 25.3013C6.92066 25.5646 6.58718 25.4585 6.43678 25.3516C6.27618 25.2375 6.03868 24.921 6.03848 24.1962C6.097 23.8292 6.15518 23.4551 6.21423 23.0754C6.45199 21.5465 6.7037 19.928 7.04684 18.3267ZM27.0811 10.1904C27.081 10.1904 27.0807 10.1898 27.08 10.1887C27.0807 10.1898 27.0811 10.1904 27.0811 10.1904Z" stroke="black" stroke-width="2"/>
</svg>
