<svg width="28" height="27" viewBox="0 0 28 27" fill="none" xmlns="http://www.w3.org/2000/svg">
<path d="M6.52047 18.3267L6.52057 18.3267L6.52325 18.3133C6.64074 17.7258 6.63551 17.1679 6.43247 16.6291C6.23541 16.1061 5.89022 15.7059 5.52927 15.3662L5.52933 15.3661L5.51963 15.3573C5.39237 15.2406 5.26541 15.1245 5.13886 15.0088C3.93097 13.9042 2.76143 12.8348 1.73864 11.6522L1.73868 11.6522L1.73212 11.6447C1.52828 11.4137 1.31156 11.0754 1.17499 10.7462C1.10764 10.5839 1.07065 10.4497 1.05642 10.352C1.04945 10.3042 1.04949 10.2762 1.04996 10.2646L1.05148 10.2603L1.05168 10.2596C1.0587 10.2493 1.07526 10.227 1.10789 10.1935C1.17826 10.1211 1.2891 10.032 1.44069 9.93796C1.74845 9.74694 2.12351 9.59701 2.41756 9.53018L2.41758 9.53025L2.42931 9.52744C3.29495 9.31968 4.19749 9.1873 5.14409 9.05864C5.25529 9.04352 5.36726 9.02844 5.47987 9.01327C6.31045 8.9014 7.17551 8.78489 8.01899 8.61619L8.01901 8.61629L8.0324 8.61342C8.4388 8.52633 8.84399 8.33649 9.18662 8.09976C9.52396 7.86669 9.87179 7.53884 10.0973 7.12328C11.0325 5.43938 11.8531 3.68628 12.6566 1.96974L12.6616 1.9591C12.8718 1.52178 13.057 1.24004 13.2257 1.09248C13.2979 1.02927 13.3444 1.01151 13.3685 1.00542C13.3879 1.00051 13.4378 0.990979 13.5429 1.021L13.5589 1.02557L13.575 1.02962C14.0393 1.14567 14.6211 1.59361 14.8559 2.01621L14.8648 2.03227L14.8743 2.04799C15.7954 3.5713 16.5444 5.20934 17.3207 6.90986C17.557 7.42937 17.8809 7.88178 18.3596 8.20609C18.8311 8.52546 19.3619 8.65883 19.9044 8.70498C21.7159 8.88632 23.543 9.13815 25.287 9.52924C25.5718 9.59783 25.9297 9.74099 26.2167 9.91734C26.3596 10.0051 26.4581 10.0848 26.516 10.1447C26.5251 10.1542 26.5323 10.1622 26.5379 10.1687C26.5486 10.2618 26.5376 10.4632 26.4297 10.7617C26.313 11.0842 26.1267 11.3962 25.9398 11.6079L25.9359 11.6124C25.3458 12.2893 24.6884 12.9216 23.9931 13.58C23.9345 13.6356 23.8755 13.6913 23.8163 13.7473C23.1882 14.3414 22.5317 14.9623 21.9206 15.6246C21.5728 15.9798 21.355 16.4425 21.2312 16.8552C21.1049 17.2764 21.0424 17.7587 21.1001 18.204C21.2084 19.1216 21.3834 20.0353 21.5505 20.9079C21.5617 20.966 21.5728 21.0239 21.5838 21.0816C21.7636 22.0222 21.9296 22.9175 22.0165 23.8034C22.0416 24.0683 22.0159 24.4292 21.9333 24.7493C21.8928 24.9063 21.845 25.0279 21.8006 25.1104C21.7769 25.1543 21.76 25.1766 21.7533 25.1848L21.7501 25.1871L21.7394 25.1955C21.734 25.1981 21.7026 25.2142 21.632 25.2305C21.5353 25.2529 21.4031 25.2668 21.2442 25.2636C20.9148 25.2568 20.5889 25.1792 20.3875 25.0838L20.366 25.0736L20.344 25.0644C18.8387 24.4372 17.4158 23.6433 15.9445 22.8224C15.7555 22.7169 15.5656 22.611 15.3747 22.5049C14.8826 22.2246 14.3631 22.0486 13.7906 22.0641C13.2252 22.0794 12.7205 22.2788 12.2549 22.5449L12.2529 22.546C10.5576 23.5199 8.78407 24.4255 6.99641 25.3013C6.39429 25.5646 6.06081 25.4585 5.91041 25.3516C5.74981 25.2375 5.51231 24.921 5.51212 24.1962C5.57063 23.8292 5.62882 23.4551 5.68786 23.0754C5.92562 21.5465 6.17733 19.928 6.52047 18.3267ZM26.5547 10.1904C26.5547 10.1904 26.5543 10.1898 26.5536 10.1887C26.5544 10.1898 26.5547 10.1904 26.5547 10.1904Z" fill="black" stroke="black" stroke-width="2"/>
</svg>
