<svg width="243" height="201" viewBox="0 0 486 402" fill="none" xmlns="http://www.w3.org/2000/svg">
<path d="M380.979 322.614C379.118 321.109 373.494 316.355 373.884 315.795C375.945 312.243 377.909 308.831 379.97 305.279C384.963 308.553 389.774 311.493 395.879 311.384C402.598 311.288 409.144 308.162 412.109 302.121C413.098 300.108 413.569 297.942 413.802 295.818C414.228 291.333 413.521 286.682 413.331 282.184C413.285 279.865 413.239 277.547 413.571 275.283C414 272.879 414.666 270.433 415.752 268.28C417.881 263.736 420.947 259.638 424.378 256.209C430.806 249.674 439.375 244.839 448.986 244.473C453.624 244.381 458.193 245.281 462.402 247.593C466.052 249.514 469.061 252.652 470.828 256.379C472.692 259.966 473.454 264.239 472.567 268.194C472.261 269.228 471.956 270.263 471.608 271.06C466.738 282.216 454.003 284.977 446.306 293.33C443.35 296.674 441.373 300.701 440.054 304.978C438.734 309.255 438.169 313.643 437.367 318.072C436.62 322.125 434.308 326.334 431.967 329.691C430.699 331.509 429.053 333.272 427.044 334.365C425.271 335.416 423.177 336.035 421.04 336.416C416.529 337.22 411.862 336.46 407.53 335.517C398.208 333.382 389.316 328.844 381.678 323.102C381.538 323.004 381.258 322.809 380.979 322.614Z" fill="black"/>
<path d="M124.685 11.0355L124.588 11.1754C108.951 32.7024 93.4125 54.0896 77.8737 75.4768C69.9857 86.1916 62.2374 97.0039 54.3494 107.719C46.6987 118.391 38.7683 128.868 31.2575 139.638C22.8688 151.667 14.9973 163.849 8.38457 176.908C8.09194 177.328 8.41401 177.76 8.93117 177.913C8.63854 178.333 8.77839 178.43 9.05813 178.625C29.4295 188.466 49.8431 198.544 70.2568 208.623C90.6705 218.701 110.847 228.822 131.065 239.18C151.004 249.342 170.985 259.743 191.119 269.626C211.113 279.412 231.303 288.917 252.035 297.347C268.685 304.177 289.544 313.318 306.792 302.894C307.462 302.53 307.895 302.208 308.425 301.746C320.293 306.489 332.064 311.371 343.933 316.114C347.358 317.463 350.783 318.812 354.111 320.301C355.844 321.095 357.536 321.65 359.129 322.346C360.583 322.944 362.079 323.78 363.728 324.098C366.929 324.875 368.515 321.408 370.118 319.407C372.307 316.567 374.453 313.49 376.599 310.413C381.378 303.559 386.018 296.608 390.28 289.602C390.573 289.182 390.488 288.707 390.069 288.415C378.274 277.902 366.284 267.67 353.903 257.996C350.602 255.278 347.202 252.699 343.803 250.121C344.712 242.855 344.77 235.619 342.648 228.526C340.09 219.673 334.572 212.083 328.232 205.375C321.29 198.039 313.483 191.347 306.053 184.711C297.42 176.819 288.787 168.927 280.391 160.993C263.362 145.167 246.765 129.02 230.266 112.732C213.907 96.5416 197.98 80.0293 181.914 63.4195C166.029 47.1447 149.908 30.9121 132.475 16.2605C130.293 14.3225 128.013 12.5244 125.732 10.7263C125.41 10.2938 124.838 10.5184 124.685 11.0355Z" fill="white"/>
<path d="M156.094 53.9374C156.777 52.9583 156.578 51.1566 156.032 50.1517C155.303 48.8119 154.099 47.5567 153.036 46.3991C152.434 45.7715 151.692 45.0464 151.188 44.2789C150.586 43.6513 149.984 43.0237 149.383 42.3962C148.361 41.4759 146.67 40.9201 145.567 41.6066C140.446 44.4794 150.071 52.4393 152.504 53.7202C153.301 54.068 154.098 54.4159 155.047 54.2466C155.467 54.5392 155.899 54.2171 156.094 53.9374Z" fill="black"/>
<path d="M317.386 210.493C317.009 210.438 316.814 210.718 316.619 210.998C315.839 212.116 315.198 213.333 314.418 214.452C316.278 215.957 318.042 217.603 319.47 219.43C321.767 222.695 321.774 226.858 320.844 230.576C320.233 232.644 319.482 234.615 318.494 236.629C317.701 238.363 316.908 240.096 315.877 241.872C317.318 243.085 318.997 244.256 320.633 245.189C321.192 245.579 321.849 245.829 322.604 245.939C323.218 245.952 323.651 245.63 323.944 245.211C324.766 244.329 325.462 242.735 325.907 241.799C327.035 239.883 327.926 238.009 328.635 235.801C331.095 228.993 329.491 222.053 324.731 216.655C322.939 214.158 320.184 212.444 317.904 210.646C317.666 210.688 317.526 210.591 317.386 210.493Z" fill="black"/>
<path d="M305.207 274.761C305.597 274.202 306.085 273.502 306.378 273.083C307.743 271.125 309.109 269.166 310.377 267.348C313.108 263.432 315.602 259.558 318.096 255.684C318.778 254.705 319.224 253.768 319.529 252.733C319.916 250.093 316.868 248.799 315.33 247.726C314.49 247.14 313.414 246.597 312.506 247.004C311.459 247.313 310.874 248.153 310.191 249.132C307.753 252.628 305.314 256.125 302.778 259.762C300.827 262.559 298.779 265.496 296.968 268.391C296.09 269.65 295.534 271.342 296.123 272.584C296.53 273.491 297.369 274.076 298.306 274.522C299.382 275.065 300.361 275.748 301.438 276.29C301.955 276.443 302.515 276.833 303.087 276.609C303.897 276.342 304.622 275.6 305.207 274.761Z" fill="black"/>
<path d="M256.851 279.708C255.495 278.97 254.041 278.372 252.587 277.774C250.573 276.786 248.518 275.56 246.309 274.851C245.792 274.699 245.415 274.644 244.94 274.728C244.367 274.953 243.977 275.512 243.727 276.169C243.184 277.246 242.641 278.322 242.336 279.357C242.085 280.014 241.835 280.671 242.06 281.243C242.326 282.053 243.026 282.541 243.585 282.931C247.18 285.23 250.829 287.151 254.674 288.793C255.61 289.238 256.687 289.781 257.721 290.086C258.616 290.294 259.37 290.405 260.04 290.04C260.948 289.634 261.63 288.655 262.118 287.955C262.606 287.256 263.051 286.319 263.119 285.327C263.09 284.475 262.683 283.568 262.081 282.94C261.479 282.313 260.64 281.727 259.941 281.24C259.004 280.794 257.928 280.251 256.851 279.708Z" fill="black"/>
<path d="M235.262 276.086C235.512 275.429 235.805 275.01 236.055 274.353C236.501 273.416 236.709 272.521 236.302 271.614C235.798 270.847 234.958 270.261 234.259 269.774C232.063 268.45 229.91 267.365 227.617 266.181C223.031 263.814 218.347 261.587 213.621 259.123C209.034 256.756 204.351 254.529 199.764 252.163C197.471 250.979 195.178 249.796 192.927 248.85C191.851 248.307 190.537 247.806 189.46 247.263C188.523 246.818 187.447 246.275 186.595 246.304C185.505 246.376 185.06 247.313 184.474 248.152C183.931 249.229 183.291 250.445 182.748 251.522C182.4 252.319 181.955 253.256 182.696 253.981C183.019 254.413 183.536 254.566 183.815 254.761C184.375 255.151 184.892 255.304 185.452 255.694C187.745 256.878 190.135 257.921 192.289 259.007C193.925 259.94 195.658 260.733 197.295 261.666C201.881 264.033 206.565 266.26 211.248 268.487C215.932 270.714 220.476 272.843 225.258 274.93C226.334 275.473 227.648 275.974 228.725 276.517C229.801 277.06 230.878 277.603 232.052 278.006C232.849 278.354 233.939 278.282 234.426 277.583C234.817 277.023 234.969 276.506 235.262 276.086Z" fill="black"/>
<path d="M106.576 127.925C106.814 127.883 107.149 127.7 107.386 127.658C110.736 125.836 110.504 121.101 108.529 118.268C107.423 116.873 105.982 115.66 104.193 115.244C102.684 115.024 101.162 115.417 100.004 116.481C97.9816 118.189 97.6927 120.69 98.4932 123.119C99.0692 124.976 100.218 126.609 101.854 127.542C103.308 128.14 105.054 128.319 106.576 127.925Z" fill="black"/>
<path d="M177.082 88.5318C176.912 87.5822 176.506 86.6748 176.197 85.6276C175.289 86.0344 174.479 86.3012 173.627 86.3306C173.521 89.1667 173.371 91.7654 172.23 94.2959C171.73 95.6099 171.047 96.589 170.224 97.4706C170.029 97.7503 167.197 99.725 167.197 99.725C166.956 97.6859 166.477 95.689 165.901 93.832C164.44 89.0709 162.071 84.7165 159.27 80.6841C157.758 78.3818 156.05 76.3591 153.812 74.7985C151.994 73.5304 149.743 72.5844 147.479 72.2531C143.371 71.8832 139.225 73.3573 136.002 75.8915C132.152 79.0275 129.785 83.6138 128.648 88.2258C128.342 89.2601 128.177 90.392 128.109 91.3839C127.185 90.3238 126.163 89.4036 125.142 88.4834C123.981 87.4657 122.917 86.3081 121.658 85.4302C121.238 85.1375 120.776 84.6075 120.107 84.9719C119.534 85.1964 119.046 85.8958 118.516 86.3577C117.359 87.4214 116.299 88.3453 115.281 89.5066C114.988 89.9262 114.696 90.3458 115.06 91.0157C115.522 91.5458 116.124 92.1734 116.586 92.7034C118.713 95.0186 120.841 97.3339 123.066 99.5093C124.269 100.764 125.431 101.782 126.634 103.037C128.177 106.192 129.719 109.346 131.163 112.641C133.099 117.317 134.896 121.896 136.119 126.7C136.64 128.934 137.161 131.168 137.347 133.585C137.533 136.001 137.481 138.46 136.913 140.766C136.607 141.8 135.967 143.017 134.822 143.466C134.012 143.732 132.88 143.567 132.083 143.219C131.286 142.871 130.35 142.426 129.608 141.701C128.489 140.92 127.468 140 126.349 139.22C121.606 135.289 117.296 131.035 113.473 126.083C113.333 125.985 113.096 126.028 112.998 126.167C111.353 127.931 109.555 130.211 109.266 132.712C109.019 135.45 110.91 137.808 112.185 140.153C114.918 145.177 117.316 150.384 119.141 155.815C119.984 158.481 120.73 161.288 121.335 163.997C121.843 166.846 122.351 169.695 122.147 172.671C122.04 175.507 121.081 178.372 118.499 179.69C116.154 180.966 113.36 181.096 110.915 180.43C108.189 179.569 105.854 178.148 103.573 176.35C104.206 170.97 104.085 165.48 103.251 160.117C102.248 153.805 100.296 147.661 97.1009 142.107C95.5035 139.33 93.5287 136.497 90.5786 135.064C89.2222 134.326 87.5732 134.007 86.1487 134.261C84.4869 134.558 82.9096 135.329 81.6121 136.295C78.822 138.507 77.2356 141.974 76.5012 145.412C75.9067 148.948 76.3042 152.551 77.4139 156.028C79.3537 162.786 83.0951 169.345 87.7145 174.645C90.3463 177.728 93.2706 180.391 96.3901 182.774C95.8932 186.17 95.0189 189.51 93.9073 192.893C93.6993 193.787 93.3938 194.822 92.8085 195.661C92.6134 195.941 92.4607 196.458 92.6429 196.793C92.7828 196.89 92.9226 196.988 93.2024 197.183C94.1391 197.628 95.1734 197.934 96.1102 198.379C96.2501 198.477 96.6273 198.532 96.7249 198.392C96.9623 198.35 96.92 198.112 97.1151 197.833C98.7567 193.988 100.398 190.143 101.663 186.244C102.6 186.689 103.579 187.372 104.515 187.817C107.605 189.348 111.03 190.698 114.341 190.72C117.89 190.699 121.044 189.157 123.415 186.652C126.078 183.728 127.622 180.023 128.691 176.403C129.663 172.923 130.257 169.388 129.957 165.644C129.472 159.484 126.947 153.566 124.129 148.067C125.85 149.474 127.766 150.603 129.932 151.074C131.861 151.587 133.845 151.724 135.604 151.287C137.601 150.809 139.373 149.758 140.781 148.037C143.457 144.498 144.315 139.691 144.125 135.193C144.079 132.874 143.698 130.737 143.415 128.461C143.034 126.324 142.75 124.048 142.132 121.953C141.781 120.669 141.429 119.384 141.078 118.099C144.282 120.958 147.486 123.816 150.69 126.674C155.055 130.55 159.518 134.286 164.079 137.882C166.639 139.875 169.199 141.868 171.759 143.862C171.899 143.959 172.136 143.917 172.136 143.917C173.586 142.434 174.659 140.895 175.69 139.119C176.038 138.322 176.288 137.665 175.686 137.038C175.322 136.368 174.483 135.782 173.783 135.295C170.524 132.814 167.362 130.193 164.298 127.432C162.297 125.829 160.394 124.086 158.491 122.344C159.161 121.979 159.789 121.377 160.319 120.915C163.792 117.724 165.921 113.18 166.681 108.513C166.889 107.619 166.958 106.627 167.026 105.635L167.263 105.592C168.548 105.241 169.93 104.749 171.032 104.063C174.047 102.423 176.095 99.4859 176.969 96.1456C177.691 93.3224 177.645 91.0035 177.082 88.5318ZM156.399 116.103C155.674 116.844 154.487 117.056 153.648 116.471C153.088 116.081 152.864 115.508 152.737 114.796C152.75 114.181 152.86 113.427 153.013 112.91C153.513 111.596 154.434 110.574 155.536 109.888C156.736 109.061 158.216 108.43 159.598 107.939C159.543 108.316 159.487 108.693 159.53 108.931C159.101 111.334 158.519 114.255 156.399 116.103ZM157.632 102.41C153.206 103.689 148.894 106.295 147.142 110.894C147.044 111.034 146.947 111.174 146.989 111.411C146.709 111.216 146.387 110.784 145.968 110.491C143.001 107.591 140.132 104.55 137.263 101.51C136.492 99.9327 135.72 98.3555 135.424 96.6936C134.285 92.3649 134.863 87.3627 137.539 83.8237C138.947 82.1029 140.872 80.5349 143.106 80.0141C145.578 79.4509 147.968 80.4945 150.164 81.8177C154.458 84.6041 157.246 89.2512 158.47 94.0547C159.173 96.6239 159.541 99.3753 159.629 101.932C159.057 102.156 158.344 102.283 157.632 102.41ZM84.4959 147.661C84.5088 147.047 84.5217 146.432 84.6321 145.677C84.645 145.063 84.7131 144.071 85.383 143.706C86.3879 143.16 87.5492 144.177 88.3884 144.763C92.809 148.261 95.0543 153.985 96.0278 159.445C96.8449 163.342 97.2847 167.183 97.3895 171.206C96.7877 170.578 96.0884 170.09 95.6265 169.56C91.4985 165.642 87.9558 160.885 85.9903 155.356C84.9523 152.969 84.4867 150.357 84.4959 147.661Z" fill="black"/>
<path d="M217.654 129.923C215.377 130.207 212.906 130.77 210.447 130.718C207.988 130.667 205.682 130.098 203.779 128.355C201.876 126.612 200.601 124.268 200.275 121.754C199.809 119.142 200.196 116.501 201.002 114.153C201.155 113.636 201.405 112.979 201.655 112.322C201.753 112.182 201.613 112.084 201.473 111.987C200.634 111.401 199.697 110.956 198.76 110.511C198.621 110.413 198.383 110.455 198.286 110.595C195.86 113.477 194.846 116.72 193.874 120.2C193.055 123.163 193.41 126.53 194.533 129.391C195.965 133.3 199.546 136.214 203.543 137.338C207.778 138.421 212.064 137.044 216.172 137.414C220.28 137.784 224.587 139.956 226.256 143.822C227.658 146.879 226.953 151.169 224.303 153.479C223.968 153.661 223.536 153.983 223.201 154.165C222.963 154.208 223.006 154.445 223.048 154.682C223.594 155.687 224.239 156.552 224.925 157.655C225.065 157.752 225.205 157.85 225.302 157.71C230.132 155.257 234.749 151.616 236.234 146.208C236.901 143.762 236.715 141.345 236.054 139.013C235.296 136.821 233.728 134.896 231.965 133.251C228.201 130.003 222.682 129.272 217.654 129.923Z" fill="black"/>
<path d="M211.306 150.652C207.686 149.582 204.083 149.98 200.339 150.28C196.833 150.537 193.438 150.041 191.226 147.25C188.229 143.498 189.045 138.453 191.861 135.012C191.958 134.872 188.461 132.433 188.322 132.336C187.902 132.043 184.39 137.078 184.098 137.498C182.775 139.694 181.968 142.042 181.917 144.501C181.742 148.329 183.411 152.196 186.196 154.761C187.539 156.114 189.315 157.144 191.006 157.7C193.215 158.409 195.296 158.405 197.573 158.122C199.989 157.936 202.461 157.373 205.06 157.522C207.281 157.616 209.49 158.324 211.015 160.012C212.261 161.505 212.88 163.599 211.989 165.472C210.805 167.766 207.693 169.545 205.908 171.211C206.006 171.071 208.862 174.726 209.184 175.159C209.324 175.256 209.464 175.354 209.561 175.214C213.233 173.824 216.413 171.053 218.237 167.543C220.006 164.411 220.795 160.596 219.448 157.161C218.046 154.104 214.689 151.763 211.306 150.652Z" fill="black"/>
<path d="M173.273 155.105C170.912 154.914 168.677 155.435 166.71 156.765C163.012 159.384 161.345 164.458 162.107 168.732C162.898 173.857 166.119 178.182 169.925 181.668C177.397 188.542 186.849 193.471 196.993 194.724C198.88 195 200.864 195.136 202.678 194.323C204.633 193.607 206.041 191.886 206.792 189.915C207.708 186.812 206.599 183.336 205.043 180.796C202.31 175.772 198.573 171.294 194.445 167.376C190.317 163.457 185.561 160.141 180.318 157.524C178.262 156.298 175.871 155.255 173.273 155.105ZM199.993 184.758C200.12 185.471 199.87 186.128 199.34 186.59C198.81 187.051 197.818 186.983 197.106 187.11C194.172 187.143 191.307 186.185 188.636 184.946C185.826 183.61 183.211 181.994 180.693 180.238C178.036 178.385 175.336 176.294 173.068 173.881C171.221 171.761 169.386 169.026 169.115 166.135C169.001 164.808 169.264 163.536 169.947 162.557C170.24 162.138 170.532 161.718 170.867 161.536C171.342 161.451 171.915 161.227 172.292 161.282C173.856 161.125 175.31 161.724 176.764 162.322C178.218 162.92 179.617 163.895 180.875 164.773C182.134 165.651 183.63 166.487 184.889 167.365C189.967 171.113 194.794 175.519 197.989 181.074C198.871 181.897 199.739 183.334 199.993 184.758Z" fill="black"/>
<path d="M192.237 198.266C191.804 198.588 191.511 199.008 191.316 199.288C189.756 201.525 188.195 203.763 186.537 206.141L186.439 206.281C182.298 202.977 178.06 199.814 173.919 196.51C169.079 192.719 164.378 189.025 159.441 185.374C156.741 183.283 154.041 181.192 151.341 179.102C151.201 179.004 150.964 179.046 150.866 179.186L147.355 184.222C146.574 185.341 145.264 186.921 146.23 188.219C146.735 188.986 147.434 189.474 148.133 189.962C148.972 190.547 149.714 191.272 150.553 191.857C152.134 193.168 153.813 194.338 155.394 195.649C161.912 200.611 168.626 205.293 175.34 209.975C179.116 212.608 182.99 215.102 186.864 217.596C187.004 217.693 187.242 217.651 187.339 217.511C190.587 213.748 193.136 209.496 195.266 204.952C195.766 203.638 196.407 202.422 196.768 201.01C196.865 200.87 196.725 200.773 196.585 200.675C196.026 200.285 195.467 199.895 194.907 199.505C194.348 199.115 193.928 198.822 193.368 198.432C193.186 198.097 192.669 197.944 192.237 198.266Z" fill="black"/>
<path d="M163.199 209.2C162.766 209.522 162.334 209.844 162.138 210.124C161.748 210.683 161.358 211.243 160.968 211.802C160.188 212.921 159.407 214.04 158.487 215.061C157.707 216.18 156.926 217.299 156.104 218.181C156.006 218.321 156.048 218.558 156.048 218.558C157.434 220.148 159.015 221.459 160.889 222.349C161.029 222.447 161.266 222.405 161.364 222.265C162.632 220.447 163.662 218.671 164.93 216.852C166.511 218.163 168.037 219.85 169.185 221.483C170.012 222.683 170.838 223.883 171.567 225.222C172.113 226.227 172.465 227.512 172.159 228.546C171.659 229.86 169.997 230.157 168.81 230.368C167.623 230.58 166.436 230.791 165.304 230.626C162.845 230.574 160.441 230.145 158.33 229.297C153.634 227.685 149.438 224.758 145.772 221.37C141.966 217.884 138.465 213.364 138.009 208.057C137.895 206.73 138.018 205.36 138.561 204.284C139.104 203.207 140.164 202.283 141.351 202.072C142.678 201.958 143.992 202.458 145.209 203.099C146.663 203.697 148.159 204.532 149.418 205.41C149.977 205.8 150.676 206.288 151.236 206.678C151.376 206.776 151.613 206.734 151.711 206.594C152.589 205.335 153.229 204.118 154.107 202.86C154.205 202.72 154.162 202.482 154.162 202.482C153.281 201.66 152.259 200.739 151.238 199.819C148.928 197.169 145.949 194.883 142.065 195.086C137.567 195.275 134.501 199.374 133.237 203.273C131.875 207.313 132.302 211.769 133.873 215.775C135.627 220.117 138.484 223.772 141.87 226.965C144.976 229.963 148.613 232.499 152.542 234.616C156.332 236.635 160.469 237.857 164.772 237.947C169.075 238.037 173.683 237.093 176.821 234.084C178.411 232.698 179.539 230.782 180.01 228.616C180.482 226.45 179.961 224.216 179.007 222.304C178.012 220.154 176.444 218.229 174.918 216.541C173.21 214.519 171.21 212.916 169.209 211.313C168.09 210.532 167.111 209.85 165.895 209.209C165.14 209.099 164.203 208.653 163.199 209.2Z" fill="black"/>
<path d="M117.429 214.91C116.17 214.032 114.576 213.337 113.22 212.599L104.285 207.823C102.928 207.085 101.432 206.249 100.076 205.511C98.8593 204.871 97.5452 204.37 96.3159 204.344C94.3319 204.208 92.1271 205.581 92.1307 207.662C92.105 208.892 92.7914 209.994 93.673 210.817C94.5545 211.64 95.6311 212.183 96.7078 212.725C101.434 215.19 106.397 217.612 111.124 220.076C112.62 220.912 113.976 221.65 115.57 222.345C116.647 222.888 117.961 223.389 119.105 222.94C121.06 222.224 121.544 219.443 120.493 217.671C119.807 216.568 118.645 215.551 117.429 214.91Z" fill="black"/>
<path d="M74.0553 192.145C73.0339 191.225 71.9149 190.445 70.796 189.664C69.5372 188.786 68.4182 188.006 67.1594 187.128C64.7816 185.47 62.2087 184.092 59.6358 182.713C58.4193 182.073 57.063 181.335 55.7489 180.834C54.8122 180.389 53.6803 180.223 52.6754 180.77C51.6706 181.316 51.1276 182.393 50.6823 183.329C50.2369 184.266 49.8338 185.44 50.0031 186.39C50.3546 187.675 51.7662 188.035 52.8428 188.578C54.1992 189.316 55.5556 190.054 57.0095 190.653C59.7222 192.129 62.3927 193.367 65.1054 194.843C65.7624 195.094 66.4618 195.581 67.1188 195.832C67.1188 195.832 67.1188 195.832 67.2587 195.929C68.0555 196.277 68.615 196.667 69.3144 197.155C70.391 197.698 71.6075 198.338 72.9768 198.462C73.9688 198.53 75.2534 198.178 75.8386 197.339C76.8269 195.326 75.2589 193.4 74.0553 192.145Z" fill="black"/>
<path d="M15.6228 185.906C19.4122 187.925 23.1592 189.706 26.9486 191.725C42.3012 199.521 57.709 206.94 73.1168 214.359C75.2701 215.445 77.6607 216.488 79.814 217.574C86.5535 221.027 93.2931 224.48 100.033 227.932C117.538 236.814 134.904 245.599 152.605 254.201C170.166 262.706 187.727 271.21 205.344 279.338C223.1 287.563 240.856 295.788 258.807 303.733C263.211 305.765 267.853 307.754 272.354 309.646C276.339 311.385 280.408 313.599 284.558 314.207C288.806 314.674 292.952 313.2 297.043 312.103C301.847 310.879 306.65 309.656 311.454 308.432C312.404 308.263 313.451 307.953 314.26 307.687C319.644 310.401 324.984 312.878 330.563 315.313C338.014 318.639 345.424 321.727 353.071 324.773C357.67 326.525 362.311 328.515 366.813 330.407C371.885 323.134 377.097 315.958 382.03 308.587C386.712 301.873 392.009 295.173 395.851 287.874C395.949 287.734 395.907 287.496 395.767 287.399C389.485 282.395 383.442 277.348 377.355 272.064C371.409 266.878 365.56 261.552 359.907 255.946C357.822 253.868 355.736 251.79 353.651 249.712C352.115 241.78 350.815 233.806 349.279 225.873C348.601 222.075 347.492 218.598 344.762 215.655C341.753 212.518 338.312 209.702 335.205 206.704C321.842 194.266 308.479 181.829 295.354 169.349C282.228 156.869 269.102 144.389 256.074 131.769C242.906 119.052 229.976 106.292 217.045 93.5323C213.799 90.4367 210.79 87.2988 207.641 84.0633C205.233 81.553 202.686 78.9451 200.279 76.4348C188.285 64.1205 176.334 52.0436 164.243 39.8692C152.151 27.6948 140.2 15.618 127.913 3.72333C126.752 2.70557 125.591 1.68782 124.124 1.70437C123.034 1.77613 122.03 2.32273 121.067 3.10673C120.007 4.0306 119.129 5.28943 118.349 6.40839C117.081 8.22669 115.91 9.90514 114.642 11.7234C109.667 18.8568 104.693 25.9902 99.718 33.1235C89.8661 47.2504 80.0143 61.3772 70.3024 75.6016C60.4505 89.7285 50.5987 103.855 40.8867 118.08C31.23 131.927 21.5732 145.774 13.4127 160.457C11.4913 164.106 9.56991 167.756 7.78836 171.503C6.64728 174.033 4.11118 177.67 6.281 180.223C7.2472 181.52 9.07839 182.173 10.4348 182.911C11.9733 183.984 13.7493 185.015 15.6228 185.906ZM364.365 320.8C362.212 319.714 359.724 318.81 357.473 317.864C354.146 316.375 350.861 315.124 347.533 313.635C340.921 310.895 334.406 308.014 327.793 305.274C325.262 304.133 322.774 303.229 320.244 302.088C321.873 298.858 323.641 295.726 325.55 292.691C331.213 295.601 336.778 298.65 342.441 301.56C348.383 304.665 354.229 307.91 360.214 311.252C362.786 312.63 365.359 314.009 367.974 315.625C366.664 317.206 365.396 319.024 364.365 320.8ZM372.182 308.996C367.371 306.056 362.42 303.02 357.512 300.22C351.345 296.543 345.22 293.103 339.095 289.664C336.242 288.09 333.39 286.517 330.397 284.845C330.788 284.286 331.178 283.726 331.568 283.167C332.836 281.349 333.867 279.573 335.135 277.754C340.31 281.363 345.345 284.875 350.618 288.344C356.59 292.301 362.562 296.258 368.772 300.173C370.967 301.496 373.303 302.917 375.401 304.38C374.328 305.918 373.255 307.457 372.182 308.996ZM358.451 278.007C364.13 282.383 369.712 286.9 375.196 291.556C376.777 292.866 378.358 294.177 379.842 295.627C380.121 295.822 380.443 296.255 380.723 296.45C380.04 297.429 379.26 298.548 378.577 299.527C373.919 296.07 369.024 292.656 364.366 289.2C358.589 284.963 352.952 280.824 347.175 276.588C344.754 274.692 342.377 273.034 339.957 271.138C340.932 269.739 342.005 268.201 343.12 266.9C348.156 270.411 353.373 274.258 358.451 278.007ZM363.922 267.478C369.029 272.079 374.276 276.777 379.383 281.379L386.394 287.723L383.857 291.359C379.394 287.623 375.169 283.845 370.706 280.109C365.361 275.55 359.877 270.894 354.533 266.335C352.21 264.299 349.888 262.264 347.467 260.368C348.54 258.83 349.753 257.389 350.826 255.85C355.429 259.684 359.655 263.462 363.922 267.478ZM272.777 160.881C273.506 162.22 273.76 163.645 273.582 165.391C273.263 167.04 272.33 168.677 270.753 169.448C269.176 170.219 267.429 170.04 265.767 170.337C262.541 170.789 259.484 172.192 257.211 174.557C256.193 175.718 255.218 177.117 254.857 178.528C254.399 180.08 254.318 181.686 254.614 183.348C255.067 186.574 256.414 190.009 255.777 193.307C255.361 195.095 254.568 196.829 253.215 198.173C251.863 199.516 250.285 200.287 248.428 200.863C245.049 201.833 241.641 201.951 239.033 204.498C236.523 206.905 235.551 210.385 236.381 213.667C236.677 215.329 237.351 217.046 237.41 218.75C237.511 220.692 236.815 222.285 235.742 223.824C233.219 226.846 229.365 227.9 225.762 228.298C224.812 228.467 223.96 228.497 223.01 228.666C222.773 228.708 222.675 228.848 222.718 229.086C223.196 231.082 222.823 233.109 222.826 235.19C227.074 235.658 230.931 236.685 235.205 235.923C239.338 235.063 242.841 232.724 244.482 228.88C245.276 227.146 245.552 225.26 245.353 223.458C245.154 221.656 244.243 219.981 243.709 218.362C243.036 216.645 242.46 214.788 242.973 212.859C243.584 210.79 245.314 209.502 247.451 209.121C249.35 208.782 251.377 209.156 253.276 208.817C255.175 208.479 256.99 207.665 258.483 206.42C261.608 204.025 263.487 200.138 263.661 196.31C263.798 194.326 263.417 192.19 262.701 190.235C262.082 188.141 261.227 186.089 261.461 183.965C261.597 181.981 262.487 180.107 264.442 179.391C266.062 178.858 267.808 179.036 269.415 179.117C271.161 179.296 272.866 179.237 274.443 178.466C276.02 177.695 277.373 176.351 278.306 174.715C279.727 172.38 279.973 169.641 279.27 167.072C281.635 169.345 284.098 171.478 286.323 173.653C283.201 178.129 280.08 182.605 277.098 187.178C273.587 192.214 270.118 197.486 266.746 202.619C263.374 207.752 259.905 213.025 256.533 218.158C253.162 223.29 249.832 228.661 246.601 233.891C244.985 236.506 243.369 239.122 241.753 241.737C241.46 242.156 241.07 242.716 241.155 243.191C241.239 243.665 241.561 244.098 241.841 244.293C242.401 244.683 242.96 245.073 243.617 245.324C244.177 245.714 244.974 246.062 245.533 246.452C248.246 247.928 250.819 249.306 253.489 250.545C254.286 250.893 254.943 251.143 255.642 251.631C256.159 251.784 256.719 252.174 257.334 252.187C258.465 252.352 259.33 251.708 260.153 250.827C260.933 249.708 261.671 248.351 262.549 247.092C263.427 245.834 264.165 244.477 265.043 243.218C266.659 240.603 268.275 237.988 270.031 235.47C273.263 230.24 276.732 224.967 279.964 219.737C283.195 214.506 286.567 209.374 289.896 204.003C293.128 198.773 296.5 193.64 299.829 188.27L300.86 186.494C303.784 189.157 306.569 191.723 309.493 194.386C305.858 200.79 302.223 207.195 298.449 213.502C294.381 220.228 290.314 226.955 286.107 233.584C281.899 240.213 277.65 246.605 273.303 253.136C271.645 255.514 269.736 258.549 266.692 259.337C265.17 259.731 263.521 259.412 261.97 258.954C260.278 258.398 258.684 257.702 257.091 257.007C250.058 253.974 243.082 250.563 236.44 246.971C233.167 245.105 229.755 243.141 226.441 241.037C223.406 239.129 220.091 237.025 217.977 234.095C217.011 232.798 216.379 231.318 216.558 229.571C216.736 227.825 217.572 226.329 218.17 224.875C219.757 221.407 221.58 217.898 223.447 214.626C227.277 207.941 231.526 201.55 235.733 194.92C239.941 188.291 244.148 181.662 248.495 175.131C252.702 168.502 256.909 161.872 261.256 155.341C261.939 154.362 262.482 153.285 263.263 152.166C266.564 154.885 269.671 157.883 272.777 160.881ZM133.09 32.073C131.886 30.8178 130.823 29.6602 129.619 28.405C127.352 25.9922 124.945 23.4819 122.677 21.0691C121.753 20.009 120.732 19.0888 119.808 18.0287C120.979 16.3503 122.149 14.6718 123.32 12.9934C128.202 17.0221 133.127 21.2882 137.912 25.4568C136.211 27.5972 134.651 29.8351 133.09 32.073ZM114.217 32.0084C113.335 31.1857 112.454 30.3631 111.335 29.5827C112.7 27.6245 114.066 25.6663 115.529 23.5683C119.67 26.8719 123.811 30.1754 127.714 33.5213C128.414 34.0091 128.875 34.5391 129.575 35.0268C129.855 35.2219 130.134 35.417 130.317 35.7519C128.756 37.9898 127.293 40.0879 125.732 42.3258L114.217 32.0084ZM105.061 44.5415C104.081 43.8587 103.34 43.1335 102.361 42.4507C104.019 40.0729 105.677 37.6952 107.433 35.1775C111.434 38.3835 115.533 41.4497 119.534 44.6557C120.513 45.3385 121.534 46.2587 122.513 46.9415C120.66 49.599 118.904 52.1167 117.051 54.7742C113.105 51.1909 109.201 47.845 105.061 44.5415ZM95.7093 57.3543C94.9677 56.6291 94.1284 56.0439 93.3868 55.3188C94.9475 53.0808 96.5081 50.8429 98.0688 48.605C102.265 51.5313 106.321 54.36 110.322 57.5661C111.441 58.3464 112.463 59.2666 113.442 59.9494C111.686 62.4671 109.833 65.1246 108.077 67.6423C104.033 64.1988 99.8502 60.6578 95.7093 57.3543ZM87.6685 68.5862C86.9268 67.861 86.0876 67.2758 85.3459 66.5507C86.5164 64.8722 87.5894 63.3337 88.7599 61.6552C93.1934 64.5392 97.6269 67.4231 102.06 70.3071L104.955 72.1181C103.297 74.4959 101.639 76.8737 99.9807 79.2514C95.9374 75.808 91.7542 72.267 87.6685 68.5862ZM78.4204 76.4814C79.2007 75.3625 80.0786 74.1036 80.859 72.9847C85.2925 75.8686 89.4885 78.7949 93.8245 81.8187C94.8036 82.5015 95.9226 83.2819 96.9016 83.9647C96.3164 84.8039 95.7311 85.6431 95.0483 86.6222C94.6582 87.1817 94.1704 87.881 93.7803 88.4405C89.5547 84.6621 85.1341 81.1635 80.3785 77.847C79.6792 77.3593 79.1197 76.9691 78.4204 76.4814ZM72.6598 89.5114C71.9604 89.0237 71.1212 88.4385 70.5194 87.8109C71.7875 85.9926 73.1531 84.0344 74.4211 82.2161C78.7571 85.2399 83.1906 88.1239 87.4842 90.9103C88.4633 91.5931 89.6798 92.2336 90.6589 92.9164C89.0982 95.1543 87.5375 97.3922 86.2143 99.5878C81.6961 96.229 77.1779 92.8702 72.6598 89.5114ZM76.3257 108.7C75.0669 107.822 73.9479 107.041 72.6891 106.163C70.1714 104.408 67.7936 102.749 65.3735 100.854C64.3944 100.171 63.5552 99.5857 62.6736 98.763C63.8442 97.0846 65.0147 95.4062 66.2827 93.5879C70.6187 96.6117 75.1921 99.5932 79.7231 102.337C80.7022 103.02 81.9187 103.661 82.9953 104.203C81.6297 106.162 80.404 108.217 79.0384 110.176C78.7587 109.98 78.4789 109.785 78.1992 109.59L76.5208 108.42L76.3257 108.7ZM58.8695 104.218C63.2054 107.242 67.8764 110.083 72.3099 112.967C73.4288 113.748 74.6453 114.388 75.8618 115.029C74.5938 116.847 73.4656 118.763 72.1975 120.581C67.6242 117.6 63.0085 114.381 58.4351 111.399C57.456 110.716 56.337 109.936 55.3579 109.253C56.5284 107.575 57.699 105.896 58.8695 104.218ZM47.5545 120.443C48.9201 118.485 50.2857 116.527 51.6513 114.568C56.2247 117.55 60.7981 120.531 65.3714 123.513C66.4904 124.293 67.7069 124.934 68.8258 125.714C67.3627 127.812 65.9419 130.148 64.4788 132.246C59.8631 129.027 55.1498 125.948 50.6317 122.589C49.6526 121.906 48.5336 121.126 47.5545 120.443ZM77.7408 126.942C91.4226 106.13 105.244 85.4169 119.163 64.5634C123.023 58.7312 126.882 52.8989 130.881 47.1643C134.643 41.4719 138.503 35.6397 142.684 30.24C142.684 30.24 142.684 30.24 142.782 30.1002C142.879 29.9603 142.879 29.9603 142.977 29.8204C150.728 36.8895 158.522 44.196 165.982 51.6847C180.395 65.8946 194.237 80.329 208.121 95.0009C222.005 109.673 235.889 124.345 250.065 138.597C252.892 141.4 255.859 144.3 258.686 147.103C254.94 154.262 250.635 161.031 246.191 167.703C241.356 174.934 236.381 182.067 231.407 189.2C226.432 196.334 221.597 203.565 217.419 211.046C215.26 214.738 213.242 218.527 211.362 222.414C210.472 224.288 209.581 226.161 208.69 228.035C207.994 229.628 207.439 231.32 207.497 233.024C207.615 236.432 210.218 238.663 212.875 240.516C214.554 241.687 216.287 242.48 217.966 243.65C219.881 244.779 221.797 245.907 223.713 247.035C231.377 251.548 239.138 255.921 246.954 259.916C250.883 262.033 254.77 263.912 258.657 265.791C261.747 267.322 265.256 269.146 268.873 268.134C272.489 267.122 275.208 263.82 277.256 260.883C279.932 257.344 282.188 253.512 284.487 249.918C289.377 242.31 294.17 234.841 299.06 227.233C303.852 219.765 308.742 212.157 313.535 204.688C314.412 203.429 315.248 201.933 316.126 200.674C315.931 200.954 325.068 209.613 325.95 210.436C330.442 215.024 335.117 219.947 337.014 226.468C338.954 233.226 336.506 239.419 332.842 244.971C329.025 251.041 324.648 256.72 320.551 262.595L307.578 281.197C303.579 286.932 299.944 293.337 294.504 297.859C285.116 305.656 272.734 302.842 262.556 298.655C256.223 296.11 250.183 293.145 244.046 290.32C237.111 287.147 230.414 283.932 223.479 280.759C209.707 274.273 196.076 267.885 182.401 261.259C155.193 248.105 128.04 234.575 101.082 220.764C79.9264 209.961 58.7287 198.92 37.866 187.697C51.1576 167.445 64.4492 147.193 77.7408 126.942ZM42.8282 133.778C41.8491 133.096 40.9676 132.273 39.9885 131.59C41.2565 129.772 42.5246 127.954 43.8902 125.995C48.4084 129.354 53.2615 132.531 58.2674 135.19C59.344 135.733 60.4206 136.276 61.6371 136.916C59.9789 139.294 58.363 141.909 56.8446 144.385C51.9069 140.733 47.4863 137.235 42.8282 133.778ZM35.7389 137.982C40.2571 141.341 45.1102 144.517 49.921 147.456C50.6204 147.944 51.4173 148.292 52.1166 148.78C52.2565 148.877 52.6761 149.17 53.1932 149.323L52.9006 149.742C51.8276 151.281 50.8945 152.917 49.724 154.595C49.5841 154.498 49.3044 154.303 49.2621 154.065C47.9609 152.95 46.4647 152.114 45.066 151.139C42.1287 149.091 39.2338 147.28 36.2965 145.231C35.0377 144.353 33.7789 143.475 32.52 142.598C33.593 141.059 34.666 139.52 35.7389 137.982ZM26.7944 151.702C27.6723 150.443 28.5079 148.947 29.3858 147.688C34.0438 151.144 38.7994 154.461 43.8476 157.358C44.9242 157.901 45.9033 158.583 46.9799 159.126C45.8094 160.805 44.7788 162.581 43.6082 164.259C39.1453 160.523 34.4873 157.067 29.7317 153.75C28.7526 153.068 27.7735 152.385 26.7944 151.702ZM23.3675 157.212C28.0256 160.668 32.7388 163.747 37.7447 166.407C38.9612 167.047 40.0378 167.59 41.2543 168.231C39.6384 170.846 37.7851 173.503 36.1692 176.119C36.0293 176.021 35.8895 175.924 35.6097 175.729C34.0712 174.656 32.6725 173.68 31.1339 172.607C28.1966 170.559 25.1618 168.65 22.2245 166.602C21.1056 165.821 19.9866 165.041 18.8677 164.261C20.191 162.065 21.8492 159.687 23.3675 157.212ZM14.9954 170.708C19.7639 173.409 24.5323 176.111 29.3008 178.813C30.5173 179.453 31.7761 180.331 32.9926 180.972C32.3098 181.951 31.7669 183.028 31.0841 184.007C27.5745 182.183 23.925 180.261 20.5129 178.298C17.94 176.919 15.507 175.638 12.9341 174.26C13.7145 173.141 14.3549 171.924 14.9954 170.708Z" fill="black"/>
</svg>
