<svg width="89" height="179" viewBox="0 0 179 359" fill="none" xmlns="http://www.w3.org/2000/svg">
<path d="M2.83179 19.0614C2.83179 19.4434 3.08645 19.6981 3.46844 19.6981C13.6549 19.5707 23.8413 19.3161 33.9005 19.1888C38.8663 19.0614 43.9595 19.0614 48.9254 18.9341C51.472 18.9341 54.0187 18.8068 56.5653 18.8068C58.7299 18.8068 61.2765 18.2974 62.4224 20.7167C62.9318 21.8627 63.0592 23.136 63.4411 24.282C63.6958 25.5553 63.9504 26.9559 64.2051 28.3566C64.5871 30.5212 64.8417 32.8131 64.969 35.1051C64.5871 35.4871 64.2051 35.869 63.8231 36.3784C63.0591 37.5243 62.4225 38.7977 61.6585 40.071C61.0218 41.0896 60.1305 41.8536 59.1119 42.3629C55.4193 44.2729 50.7081 43.7635 47.5248 46.5648C45.4875 48.4748 45.2329 51.1487 45.1055 53.8226C44.8509 57.2606 44.8509 60.8258 44.9782 64.2637C45.1056 67.5743 45.2329 70.8849 45.7422 74.1955C46.1242 76.8695 47.0155 79.7981 49.4348 81.1987C50.7081 81.9627 51.9814 81.9627 53.382 81.8353C54.0187 81.708 54.9099 81.5807 55.4193 81.9627C56.0559 82.472 55.9286 83.618 55.9286 84.2546C55.9286 86.2919 55.8013 88.3292 55.8013 90.3665C49.3075 103.736 34.9191 111.885 24.478 121.944C18.4934 127.674 13.7823 134.296 10.599 141.935C7.41573 149.321 5.76039 157.342 4.74174 165.237C3.7231 173.513 3.46844 181.917 3.46844 190.194C3.46844 199.998 3.59582 209.802 3.59582 219.607L3.97779 281.362C4.10512 291.167 3.85048 300.971 4.23247 310.648C4.48713 316.123 4.86907 321.726 6.01505 327.074C5.88772 327.201 5.76037 327.456 5.76037 327.711C6.65169 332.549 7.67035 337.388 9.83496 341.844C11.9996 346.173 15.4375 349.611 20.0214 351.394C25.3693 353.431 31.3538 353.559 36.9563 353.941C43.3229 354.45 49.8168 354.832 56.1833 355.214C81.904 356.36 107.625 355.851 133.218 353.559C139.585 352.922 145.951 352.285 152.445 351.521C157.284 350.885 163.014 350.63 167.215 347.956C171.927 344.9 172.309 339.425 172.945 334.459C173.709 328.093 174.219 321.726 174.601 315.232C175.237 302.372 175.237 289.384 174.983 276.524C174.728 263.409 174.346 250.421 174.091 237.306C173.582 218.079 173.455 198.852 171.417 179.752C171.035 174.15 170.653 168.547 170.144 162.945C169.635 158.106 169.253 153.395 168.489 148.557C167.852 143.973 166.961 139.389 165.306 135.06C162.504 127.674 157.538 121.435 151.426 116.469C148.371 113.923 144.933 111.885 141.367 109.975C137.42 107.938 133.346 106.155 129.908 103.354C128.252 101.954 126.724 100.426 125.324 98.7703C125.324 98.643 125.196 98.5156 125.196 98.5156C125.069 98.3883 124.942 98.261 124.814 98.261C121.886 94.5684 119.594 90.4938 117.811 86.1646C117.429 84.6366 117.302 82.9813 117.302 81.4534C120.995 82.2173 124.814 79.5434 126.47 76.2328C128.762 71.3943 127.87 65.6644 127.616 60.5712C127.361 56.1146 127.616 51.0214 125.451 46.9468C124.432 45.0368 122.904 43.6362 120.994 42.8722C118.83 41.9809 116.283 41.8536 113.991 41.4716C109.789 40.8349 106.097 38.543 103.55 35.1051C103.805 34.9777 103.932 34.8504 103.932 34.5957C104.314 29.8845 104.187 25.1733 103.678 20.4621C103.423 18.2974 103.168 16.1328 102.659 13.9682C102.277 12.1856 101.64 10.403 100.622 9.00232C98.2023 5.81906 93.4911 4.92774 89.6712 4.29109C85.2146 3.52711 80.7581 3.27245 76.1742 3.14512C66.7517 3.01779 57.4566 3.27245 48.0341 3.39978C38.6117 3.52711 29.0619 3.9091 19.6394 4.54575C17.0928 4.67308 14.4189 4.92774 11.8723 5.1824C10.4717 5.30973 9.19834 5.43706 7.79771 5.56439C6.77906 5.69172 5.37838 5.69173 4.48707 6.07372C2.44978 6.96503 2.95912 9.89363 2.83179 11.6763C3.08645 13.7135 2.95912 16.3875 2.83179 19.0614Z" fill="white"/>
<path d="M148.244 169.184C145.952 171.094 144.806 174.15 144.042 176.951C143.151 180.516 143.024 184.336 142.769 187.902C142.132 196.56 142.005 205.346 142.387 214.004C142.387 215.023 142.514 216.169 142.514 217.188C142.514 217.442 142.642 217.57 142.896 217.57C144.934 217.442 146.971 217.315 149.008 217.188C149.263 217.188 149.39 217.06 149.39 216.806C149.136 210.439 149.008 204.2 149.135 197.833C151.427 199.107 154.101 199.107 156.648 198.343C159.831 197.324 162.251 194.777 163.779 191.849C166.962 185.992 167.853 177.715 163.779 171.985C160.468 167.274 153.083 165.109 148.244 169.184ZM151.809 176.824C152.064 175.932 152.573 174.914 153.337 174.405C154.229 173.768 155.375 173.768 156.393 174.405C158.558 175.551 159.067 178.352 159.322 180.516C159.577 182.808 159.577 185.1 158.813 187.265C158.049 189.557 156.521 191.339 154.356 192.485C152.828 193.249 151.045 193.504 149.517 192.995C149.645 190.066 150.027 187.138 150.409 184.336C150.663 182.936 150.791 181.662 151.045 180.262C151.173 179.116 151.427 177.97 151.809 176.824Z" fill="black"/>
<path d="M133.729 173.64C132.583 172.24 130.928 171.348 129.018 171.094C127.108 170.966 125.07 171.476 123.415 172.494C120.487 174.022 118.577 176.696 116.539 179.116C114.757 180.516 112.847 181.917 110.937 183.317C109.918 184.081 108.899 184.718 107.754 185.482C107.881 181.28 107.499 177.078 105.589 173.258C102.915 167.91 97.4397 164.6 91.5825 166.637C87.126 168.165 84.7067 172.24 83.8154 176.696C83.3061 179.498 83.306 182.426 84.3247 185.1C84.834 186.373 85.598 187.647 86.6166 188.665C85.7253 193.122 85.216 197.833 85.3433 202.417C85.4706 207.638 86.2347 214.131 91.5825 216.551C94.0018 217.569 96.5484 217.315 98.713 215.914C101.005 214.386 102.406 211.967 103.297 209.42C104.443 206.492 105.207 203.436 105.844 200.507C106.48 197.833 106.862 195.159 107.244 192.485C110.045 191.467 112.719 190.066 115.266 188.411C114.884 188.665 114.757 191.085 114.629 191.594C114.375 192.867 114.247 194.013 114.12 195.287C113.738 197.706 113.611 200.125 113.483 202.544C113.229 207.765 113.356 212.858 113.101 218.079C113.993 218.079 122.269 217.951 122.269 217.824C122.269 216.423 122.524 201.526 122.778 201.526C125.198 201.526 127.617 201.398 129.909 201.271C130.036 201.271 130.8 216.296 130.8 217.824C130.8 217.697 138.949 217.951 138.949 217.442C138.695 212.349 138.44 207.383 138.185 202.29C137.803 196.56 137.294 190.703 136.785 184.973C136.276 181.153 136.148 176.824 133.729 173.64ZM95.2751 210.948C94.1292 211.33 93.7472 210.184 93.3652 209.293C92.7285 207.51 92.2192 205.6 91.9645 203.69C91.3279 199.998 91.4552 196.178 91.8372 192.358C94.6385 193.631 97.9491 194.141 101.005 193.886C100.75 195.541 100.496 197.196 100.241 198.852C99.859 200.889 99.477 203.054 98.9677 205.091C98.5857 206.619 98.2037 208.147 97.3124 209.42C96.6758 210.057 96.0391 210.694 95.2751 210.948ZM100.496 188.029C97.1851 188.029 94.0018 186.373 92.2192 183.445C90.4366 180.516 90.3093 176.569 92.0919 173.513C92.8559 172.112 94.2565 170.712 96.0391 170.839C97.8217 170.839 99.3497 172.367 100.114 173.895C101.005 175.678 101.132 177.715 101.387 179.752C101.642 181.917 101.642 183.954 101.514 186.119C101.514 186.755 101.514 187.392 101.387 188.029C101.132 188.029 100.878 188.029 100.496 188.029ZM123.033 196.051C123.288 193.122 123.415 190.193 123.797 187.137C124.052 183.827 124.306 180.516 125.452 177.46C125.707 176.824 126.089 176.314 126.853 176.442C127.49 176.569 127.872 177.078 128.126 177.715C128.381 178.352 128.381 179.116 128.381 179.88C128.381 180.771 128.508 181.535 128.508 182.426C128.763 186.755 129.018 191.085 129.4 195.541C127.235 195.541 125.07 195.796 123.033 196.051Z" fill="black"/>
<path d="M79.3588 11.294C80.3775 11.8033 81.5234 12.058 82.5421 12.1853C84.5794 12.5673 86.8713 12.6946 88.6539 13.9679C90.3092 15.1139 90.8186 17.0239 91.8372 18.5518C92.3465 19.3158 92.9832 19.8251 93.7472 20.2071C94.7658 20.5891 95.9118 20.4618 96.9304 20.0798C97.9491 19.6978 98.713 19.0612 98.9677 18.0425C99.2223 17.1512 99.095 16.1326 98.8404 15.2412C98.3311 13.4586 97.0578 11.9307 95.6571 10.912C93.3652 9.25671 90.5639 8.74739 87.7626 8.3654C84.834 8.11074 81.9054 8.23807 78.9768 8.87472C78.5948 9.00205 78.3402 9.00205 78.0855 9.25671C76.9396 9.89337 78.5948 10.912 79.3588 11.294Z" fill="black"/>
<path d="M70.1912 188.411C67.1352 185.227 63.0606 180.771 64.3339 176.06C65.0979 173.004 69.5545 169.438 72.3558 172.367C73.5018 173.513 73.7564 175.168 73.8837 176.696C74.011 178.988 73.6291 181.407 73.1198 183.699C73.1198 183.827 73.1198 184.209 73.3744 184.209C75.0297 184.463 76.685 184.591 78.3403 184.591C78.4676 184.591 78.595 184.463 78.7223 184.463C80.3776 180.898 80.8869 176.696 79.4863 173.004C78.213 169.82 75.6663 167.274 72.2284 166.382C67.0079 165.109 61.5327 167.146 58.8587 171.858C54.7842 178.861 59.1134 185.991 63.8246 191.339C65.8619 193.631 68.0266 195.923 69.5545 198.724C70.9552 201.271 71.9738 204.2 71.4645 207.128C71.0825 209.547 69.5545 211.712 67.3899 212.858C65.2253 214.004 62.6787 213.877 60.8961 212.221C58.8588 210.311 58.2221 207.51 58.0948 204.836C57.9674 203.308 57.9674 201.908 57.9674 200.38C57.0761 200.38 56.1848 200.634 55.4208 200.762C54.1475 200.889 52.8742 201.016 51.6009 201.144C51.3462 201.78 51.2189 202.417 51.0916 203.054C50.7096 205.473 50.9642 208.147 51.6009 210.566C52.1102 212.858 53.1289 215.023 54.6568 216.805C56.3121 218.715 58.6041 219.861 61.0234 220.243C65.8619 220.88 71.0825 219.225 74.9024 216.041C76.685 214.513 78.0856 212.603 78.9769 210.439C79.9956 208.02 80.1229 205.346 79.6136 202.926C78.2129 196.942 74.1384 192.485 70.1912 188.411Z" fill="black"/>
<path d="M39.505 129.966C41.9242 127.547 44.2162 125.127 46.6355 122.708C47.5268 121.817 48.5454 120.798 48.6728 119.398C48.8001 118.252 48.1635 117.36 47.2722 116.724C44.8529 115.323 42.3063 116.978 40.3963 118.379C40.269 118.379 40.2689 118.506 40.1416 118.506C35.5577 120.798 31.2285 123.727 27.4086 127.292C26.5173 128.183 25.244 129.202 24.7347 130.348C24.2253 131.749 25.244 132.767 26.1353 133.659C27.9179 135.569 30.2099 137.224 32.8838 135.951C34.1571 135.314 35.0485 134.295 36.0671 133.277C37.0857 132.385 38.2317 131.112 39.505 129.966Z" fill="black"/>
<path d="M17.8588 154.541C18.4954 154.541 19.0048 154.286 19.5141 154.032C20.6601 153.395 20.9148 152.376 21.1694 151.23C21.6787 149.83 22.188 148.302 22.57 146.901C23.0794 145.246 23.9707 143.591 24.2253 141.808C24.3526 140.662 24.098 139.389 23.3341 138.625C22.4427 137.733 20.9148 137.479 19.6414 137.988C18.3681 138.37 17.4768 139.389 16.8402 140.535C15.8215 142.19 15.3122 143.973 14.8029 145.755C14.5482 146.647 14.2935 147.538 14.0389 148.557C13.7842 149.448 13.4022 150.339 13.4022 151.358C13.4022 152.249 13.6569 153.268 14.4209 153.777C14.9302 154.159 15.5669 154.414 16.3309 154.414C16.7129 154.541 17.3495 154.541 17.8588 154.541Z" fill="black"/>
<path d="M28.2991 340.698C26.8984 340.061 25.6251 339.17 24.4792 338.152C21.8052 334.332 20.5319 329.493 20.2773 324.782C20.2773 324.018 20.2773 323.127 20.2773 322.363C20.2773 321.599 20.2773 320.962 20.15 320.198C20.0226 319.561 19.768 318.925 19.2586 318.543C18.622 318.033 17.858 318.033 17.094 318.033C16.0754 318.033 15.1841 318.033 14.1654 318.161C13.5288 318.288 12.8921 318.543 12.6374 319.307C12.5101 319.689 12.5101 320.071 12.5101 320.453C12.5101 320.962 12.5101 321.599 12.5101 322.108C12.5101 323.127 12.5101 324.145 12.6374 325.164C12.8921 329.111 13.5287 333.058 14.5474 336.878C15.0567 338.534 15.6934 340.061 16.712 341.462C17.476 342.608 18.4946 343.499 19.7679 344.263C22.0599 345.919 24.9885 346.683 27.9171 346.428C29.1904 346.301 30.7183 346.046 31.8643 345.282C33.0103 344.518 33.265 343.117 32.2464 342.226C31.1004 341.335 29.5724 341.207 28.2991 340.698Z" fill="black"/>
<path d="M15.694 197.579C16.2033 197.579 16.7126 197.324 17.0946 196.942C17.4766 196.433 17.604 195.924 17.604 195.287C17.604 193.632 17.604 191.849 17.604 190.194C17.604 186.756 17.604 183.318 17.604 179.88C17.604 177.715 17.7313 175.678 17.604 173.513C17.4766 171.349 17.3493 169.184 17.0946 167.02C16.9673 165.364 16.9673 163.072 14.8027 162.69C14.0387 162.563 13.2747 162.818 12.6381 163.327C11.6194 164.218 11.3648 165.364 11.2375 166.638C11.1101 167.402 11.1101 168.293 10.9828 169.057C10.8554 170.712 10.7281 172.495 10.6008 174.15C10.3461 177.588 10.2188 180.899 10.2188 184.336C10.2188 185.992 10.2188 187.647 10.2188 189.43C10.2188 191.085 10.2188 192.868 10.2188 194.523C10.3461 195.796 10.8554 196.688 12.0014 197.197C13.2747 197.579 14.548 197.706 15.694 197.579Z" fill="black"/>
<path d="M171.673 349.739C174.093 346.555 174.984 342.481 175.621 338.661C176.385 333.44 176.894 328.347 177.276 323.127C177.403 321.853 177.403 320.707 177.531 319.434C178.04 312.431 178.295 305.3 178.422 298.297C178.549 283.781 178.04 269.393 177.658 254.877C177.912 241.253 178.04 227.629 177.658 214.004C177.403 198.725 176.639 183.572 175.621 168.293C174.729 156.196 174.22 143.718 169.509 132.386C167.344 127.165 164.288 122.454 160.086 118.634C155.757 114.814 150.664 112.14 145.571 109.593C140.477 107.047 135.129 104.5 130.673 100.808C125.834 96.733 122.396 91.2578 120.868 85.1459C120.614 84.3819 120.486 83.4906 120.359 82.5993C121.505 82.472 122.524 82.472 123.542 82.2173C125.07 81.9626 126.598 81.4533 127.872 80.4347C128.89 79.5434 129.654 78.3974 130.164 77.2514C131.182 74.5775 131.055 71.5215 130.928 68.7203C130.673 64.773 130.291 60.8258 130.036 56.8785C129.909 54.9686 129.782 52.9313 129.527 51.0213C129.4 49.2387 129.4 47.3287 129.018 45.5461C128.763 44.0182 127.872 42.8722 126.471 42.1082C125.07 41.4715 123.415 41.3442 121.887 41.0896C119.595 40.8349 117.303 40.7076 115.011 40.7076C114.884 39.4343 114.884 38.2883 114.757 37.015C114.629 35.869 114.629 34.723 114.375 33.5771C113.865 31.4124 112.592 29.5025 110.427 28.7385C109.409 28.3565 108.517 28.2292 107.371 28.2292C107.626 22.6266 107.626 17.0241 107.244 11.4215C107.117 9.89358 106.989 8.23829 106.353 6.83765C105.716 5.56435 104.825 4.41837 103.552 3.65439C100.878 1.99909 97.4397 1.74443 94.3837 1.36244C86.6166 0.471126 78.8494 0.598457 71.0823 0.853118C63.1878 1.10778 55.2933 1.23511 47.5261 1.48977C39.759 1.74443 31.9918 1.87176 24.2246 2.25375C21.1687 2.38108 18.2401 2.63574 15.3115 3.01774C13.5288 3.01774 11.7463 3.14507 9.96365 3.2724C8.56301 3.39973 7.28966 3.52706 6.01636 3.78172C4.87038 4.03638 3.46973 4.03638 2.57842 4.80036C0.795792 5.94634 0.668524 8.49295 0.413863 10.4029C0.286532 11.8035 0.15914 13.2042 0.0318093 14.4775C0.0318093 15.7508 -0.0954745 17.0241 0.159186 18.1701C0.286517 19.0614 0.668462 20.08 1.30511 20.7167C1.94177 21.7353 2.96047 22.2446 4.23378 22.372C5.12509 22.372 6.01637 22.2446 6.90769 22.2446C7.92633 22.2446 8.81763 22.1173 9.83627 22.1173C11.7462 21.99 13.7836 21.8626 15.6935 21.7353C19.6408 21.4807 23.5879 21.3533 27.4079 21.0987C35.3024 20.7167 43.1969 20.3347 51.0914 20.08C53.8927 19.9527 57.2032 19.8254 59.7498 21.4807C62.5511 23.3906 62.5511 27.5925 62.9331 30.6485C62.9331 30.7758 62.9331 30.9031 62.9331 30.9031C62.2964 31.0304 61.6598 31.2851 61.0231 31.5398C58.7312 32.4311 56.8213 33.959 55.8026 36.251C54.9113 38.161 54.6566 40.4529 54.6566 42.6175C54.6566 42.6175 54.5293 42.6175 54.4019 42.6175C52.874 42.7449 51.346 42.8722 49.8181 43.1268C47.2715 43.6362 44.4701 44.6548 43.3242 47.2014C42.5602 48.7294 42.5602 50.512 42.8149 52.1673C42.9422 53.9499 43.1969 55.8599 43.1969 57.6425C43.1969 59.5525 43.0695 61.5898 42.9422 63.4997C42.9422 65.4097 42.9422 67.3196 43.0696 69.2296C43.3242 72.9222 44.0882 76.6148 45.1068 80.3074C45.4888 81.708 46.1255 83.2359 47.5261 83.8726C49.0541 84.5092 50.9641 84.2546 52.6194 84.2546H54.7839C54.7839 89.6025 51.9827 94.5684 48.2901 98.2609C44.0882 102.463 38.8676 105.519 34.0291 109.084C31.8644 110.739 29.6998 112.395 27.6625 114.177C23.7153 116.979 19.8954 120.162 16.4575 123.727C13.2742 127.038 10.3456 130.73 8.05369 134.677C5.50708 139.134 3.85179 143.845 2.96047 148.938C1.94183 154.414 1.68712 160.144 1.55979 165.746C1.43246 171.858 1.17785 177.97 1.05052 184.082C0.795854 196.305 0.541193 208.529 0.413863 220.753C0.286532 232.977 0.159186 245.2 0.159186 257.424C0.159186 258.952 0.159186 260.48 0.159186 262.008C0.159186 262.135 0.286532 262.263 0.413863 262.39C0.286532 277.542 0.795823 292.567 1.81447 307.72C2.19646 313.195 2.57845 318.67 3.08777 324.145C3.46976 328.984 3.72441 333.95 4.74305 338.661C5.63437 342.863 7.16232 346.937 10.2182 349.993C12.8922 352.667 16.3302 354.323 19.8954 355.341C23.7153 356.487 27.7899 356.869 31.8644 357.251C37.085 357.633 42.3056 357.761 47.5261 358.015C58.3492 358.397 69.1723 358.652 80.1227 358.652C101.896 358.779 123.797 358.015 145.571 356.615C150.791 356.233 156.012 356.105 161.232 355.341C165.052 354.577 169.127 353.177 171.673 349.739ZM120.741 352.285C108.899 352.922 96.9304 353.304 85.0886 353.431C73.2469 353.431 61.2778 353.177 49.4361 352.54C43.5789 352.285 37.7217 351.903 31.9918 351.394C27.2806 351.012 22.442 350.375 18.1128 348.211C13.7835 346.046 10.9822 342.226 9.5816 337.642C8.18096 333.058 7.9263 328.092 7.67164 323.381C7.03499 311.412 6.52568 299.443 6.01636 287.347C5.63437 279.198 5.37969 271.176 5.12503 263.027C5.37969 248.638 5.50705 234.25 5.63438 219.862C5.88904 205.473 6.0164 191.085 6.14373 176.569C6.27106 163.581 6.52566 150.084 12.7649 138.243C18.4947 127.547 27.6626 119.652 37.7217 113.159C47.2715 107.047 58.9858 99.5342 59.4952 86.8012C59.4952 85.9099 59.4952 84.8912 59.3679 83.9999L65.8617 83.8726C66.8803 89.8571 68.1536 95.7143 69.9363 101.444C70.9549 104.755 72.1009 107.938 73.2468 111.121C74.2655 113.795 75.2842 116.724 78.0855 117.997C79.3588 118.506 80.7593 118.761 82.16 118.761C83.4333 118.761 84.7066 118.761 85.9799 118.761C85.5979 127.802 85.4706 136.715 85.3432 145.755C85.3432 147.92 85.3432 150.084 85.3432 152.376C79.104 152.631 72.8649 153.013 66.753 153.65C62.5511 154.032 58.3492 154.668 54.1473 155.305C50.8367 155.814 47.5261 156.324 44.5975 157.724C41.6689 159.125 39.377 161.29 38.1037 164.345C37.467 166.001 37.085 167.783 36.8304 169.566C36.5757 171.603 36.3211 173.768 36.0664 175.805C35.3024 184.464 35.175 193.122 35.3024 201.653C35.4297 210.439 35.557 219.098 35.557 227.883L35.8117 254.113C35.8117 257.933 35.9391 261.753 36.0664 265.573C35.9391 273.85 36.4484 282.253 37.7217 290.403C38.231 293.331 38.613 296.387 39.377 299.188C40.1409 301.608 41.2869 303.645 43.3242 305.173C45.2341 306.574 47.5261 307.465 49.8181 308.102C52.492 308.866 55.2933 309.248 58.0946 309.63C67.899 310.776 77.8308 310.139 87.6352 309.248C89.0359 319.179 92.3464 328.856 97.3123 337.515C97.949 338.661 98.5856 339.68 99.2223 340.826C99.8589 341.717 100.623 342.608 101.769 342.99C102.66 343.245 103.552 343.117 104.316 342.608C104.697 342.354 104.952 341.972 105.079 341.59C105.079 341.335 105.079 341.208 104.952 341.08C104.825 340.698 104.57 340.316 104.443 339.934C102.151 334.968 100.241 329.748 98.9676 324.4C97.6943 319.307 97.0576 313.959 96.803 308.738C108.772 307.974 120.868 307.974 132.965 307.974C145.571 307.974 158.176 307.974 170.782 306.701C171.419 306.701 172.055 306.574 172.692 306.446C172.437 314.086 172.055 321.853 171.546 329.493C171.164 334.586 171.419 340.571 167.471 344.263C164.288 347.192 159.832 348.211 155.63 348.72C150.027 349.484 144.297 349.993 138.567 350.375C132.583 351.521 126.598 351.903 120.741 352.285ZM47.9081 50.0027C48.4174 49.1114 49.1814 48.6021 49.9454 48.2201C50.0727 56.8785 50.3274 65.4097 50.8367 74.0682C50.964 75.8508 51.0913 77.6334 51.2187 79.416C50.0727 79.1614 49.1814 78.5247 48.7994 77.3787C48.5448 76.6148 48.4174 75.7235 48.2901 74.9595C48.1628 73.9408 48.0354 72.9222 47.7807 72.0309C47.5261 69.9936 47.2714 68.0836 47.1441 66.0463C46.8894 62.0991 46.8895 58.2792 47.0168 54.3319C47.1441 52.804 47.2715 51.276 47.9081 50.0027ZM54.2746 54.0773C54.2746 51.9126 54.2746 49.6207 54.2746 47.4561C55.6753 47.2014 57.2032 47.0741 58.7312 46.8194C58.7312 55.7326 58.9859 64.6457 59.6225 73.5588C59.7499 75.5961 59.8772 77.6334 60.1318 79.5434H58.2219C57.2032 79.5434 56.3119 79.5434 55.2933 79.6707C54.6566 71.1396 54.402 62.6084 54.2746 54.0773ZM5.63438 8.36562C12.5102 7.60163 19.3861 7.09231 26.3892 6.58299C34.5384 6.07367 42.6876 5.81901 50.8367 5.56435C58.9859 5.30968 67.135 5.18235 75.2842 5.18235C79.2314 5.18235 83.0513 5.05502 86.9986 5.18235C90.5638 5.30969 94.3837 5.81901 97.567 7.60163C99.095 8.36562 100.368 9.51159 101.26 10.9122C102.151 12.4402 102.66 14.2228 102.788 16.0054C103.297 19.8254 103.042 23.8999 102.66 27.7199C102.66 27.9745 102.533 28.2292 102.533 28.4838C99.6042 28.6112 96.5483 28.6112 93.6197 28.7385C87.6352 28.9932 81.6506 29.2478 75.7934 29.7571C72.9922 29.8845 70.3182 30.0118 67.517 30.2665C67.3896 30.2665 67.135 30.2665 67.0077 30.2665C66.8804 28.8658 66.753 27.3379 66.4983 25.9372C66.1163 23.7726 65.7344 21.4807 64.4611 19.5707C62.0418 15.8781 57.5852 15.1141 53.5106 14.9868C42.6875 14.7321 31.9918 16.1328 21.296 17.0241C15.8208 17.5334 10.2183 17.7881 4.74305 17.7881C4.74305 14.7321 5.12506 11.5489 5.63438 8.36562ZM117.94 78.2701C117.558 69.4843 117.303 60.6985 117.303 51.9126C117.303 49.8754 117.303 47.8381 117.431 45.8008C118.195 45.8008 118.831 45.9281 119.595 46.0554C119.85 46.0554 119.977 46.0554 120.232 46.1828C120.486 54.7139 120.614 63.2451 120.868 71.7762C120.868 73.9408 120.996 76.2328 120.996 78.3974C120.104 78.3974 119.213 78.3974 118.322 78.3974C118.195 78.2701 118.067 78.2701 117.94 78.2701ZM77.4488 72.6675C77.4488 74.8321 77.5761 76.9968 77.5761 79.1614L73.2468 79.2887C72.8648 70.2482 72.6102 61.0804 72.4829 51.9126C72.4829 49.8754 72.4829 47.7107 72.4829 45.6735C73.5015 45.6735 74.6475 45.5461 75.6661 45.5461C76.1755 45.5461 76.6848 45.5461 77.3214 45.5461C76.9394 54.5866 77.1941 63.6271 77.4488 72.6675ZM95.7843 72.9222C95.7843 74.8321 95.9117 76.8694 96.039 78.7794C94.2564 78.7794 92.6011 78.9067 90.8185 78.9067C90.3092 69.9936 90.0545 60.9531 90.3091 51.9126C90.3091 49.6207 90.4365 47.2014 90.5638 44.9095C92.3465 44.9095 94.1291 44.9095 96.039 44.9095C95.657 54.2046 95.5297 63.6271 95.7843 72.9222ZM76.4301 83.8726C84.4519 83.7453 92.3465 83.7453 100.368 83.6179C100.368 83.6179 100.496 83.6179 100.623 83.6179C100.114 88.2018 99.6043 92.7857 98.8403 97.3696C98.4583 99.9162 97.9489 102.59 97.4396 105.137C97.185 106.41 96.9303 107.683 96.6757 108.957C96.421 109.975 96.2937 111.249 95.4024 111.885C95.0204 112.14 94.3837 112.267 93.8744 112.395C93.2377 112.395 92.6011 112.522 91.9644 112.522C90.6911 112.522 89.4179 112.522 88.0172 112.522C86.7439 112.522 85.3432 112.395 84.0699 112.267C83.0513 112.14 81.9054 112.013 81.014 111.503C79.9954 110.994 79.3587 110.103 78.9767 109.084C78.4674 107.938 78.0854 106.665 77.7034 105.519C76.8121 103.099 76.0481 100.553 75.4115 98.1336C74.0108 93.5497 72.8648 88.8385 71.9735 84.1273L76.4301 83.8726ZM106.225 78.5247L99.7316 78.652C99.6043 69.6116 99.6043 60.5711 99.7316 51.4033C99.7316 49.2387 99.8589 47.0741 99.8589 44.9095C101.769 44.9095 103.806 45.0368 105.716 45.0368C105.843 54.0773 105.971 63.1177 106.098 72.2855C106.098 74.4501 106.225 76.4874 106.225 78.5247ZM86.6165 78.9067C85.0886 78.9067 83.6879 78.9067 82.16 79.034H81.6507C81.396 69.9936 81.014 60.9531 81.5233 51.9126C81.6506 49.6207 81.9053 47.2014 82.0327 44.9095C82.6693 44.9095 83.1787 44.9095 83.8153 44.9095C84.5793 44.9095 85.4706 44.9095 86.2346 44.9095C86.4892 54.0773 86.6165 63.3724 86.6165 72.5402C86.7439 74.7048 86.6165 76.8694 86.6165 78.9067ZM69.1723 72.6675C69.2997 74.8321 69.427 77.1241 69.5543 79.2887L64.5884 79.416C64.0791 70.5029 63.6971 61.4624 63.6971 52.422C63.6971 50.3847 63.6971 48.2201 63.6971 46.1828C65.225 46.0554 66.753 45.9281 68.281 45.8008C68.4083 54.8412 68.663 63.7544 69.1723 72.6675ZM172.183 239.216C172.183 241.508 172.183 243.8 172.183 246.092C158.94 246.474 145.825 246.856 132.583 246.983C118.831 247.11 104.952 247.11 91.2005 246.983C87.7626 246.983 84.452 246.856 81.014 246.856C79.2314 246.856 77.5761 246.856 75.7934 246.728C75.0295 246.728 74.1382 246.728 73.3742 246.728C72.6102 246.728 71.7189 246.601 71.0823 246.219C70.573 245.837 70.0636 245.328 70.191 244.564C70.191 243.8 70.8276 243.418 71.4643 243.29C72.1009 243.036 72.7376 243.036 73.3742 242.908C74.2655 242.781 75.1568 242.654 75.9208 242.526C79.2314 242.017 82.6693 241.762 86.1073 241.508C92.8558 241.126 99.6042 240.998 106.353 240.871L127.235 240.234C141.114 239.852 154.866 239.598 168.745 239.216C169.891 239.343 171.037 239.216 172.183 239.216ZM168.745 162.945C170.145 177.206 171.037 191.594 171.673 205.855C171.928 211.585 172.055 217.315 172.183 223.172C163.651 223.172 155.12 223.299 146.589 223.299C137.549 223.299 128.508 223.427 119.468 223.554C110.427 223.681 101.387 223.809 92.3464 224.191C83.3059 224.445 74.2655 224.827 65.225 225.337C63.4424 225.464 61.5324 225.464 59.8771 226.101C58.3492 226.737 57.3305 227.756 56.6939 229.284C56.0572 230.812 56.0572 232.595 56.0572 234.25C56.0572 236.415 56.0572 238.579 56.0572 240.744C56.1846 245.073 56.3119 249.53 56.6939 253.859C56.9485 256.023 57.2032 258.188 57.5852 260.353C57.8399 262.008 58.0945 263.918 59.8771 264.555C60.7685 264.937 61.6598 264.937 62.5511 265.064C63.6971 265.191 64.7157 265.319 65.8617 265.446C68.0263 265.701 70.1909 265.701 72.4829 265.828C77.0668 265.955 81.5233 265.955 85.9799 265.828C95.0203 265.828 104.061 265.828 113.229 265.701C122.269 265.701 131.31 265.573 140.477 265.446C149.518 265.319 158.558 265.191 167.726 265.064C169.381 265.064 171.037 265.064 172.692 264.937C172.819 269.775 172.947 274.486 173.074 279.325C172.437 280.471 171.546 281.49 170.527 282.254C168.49 283.909 165.943 283.781 163.651 282.508C161.36 281.235 159.704 279.07 157.667 277.415C155.884 275.887 153.72 274.868 151.428 274.614C149.136 274.359 146.844 274.868 144.807 276.142C143.024 277.288 141.623 278.943 140.095 280.344C138.695 281.744 137.039 283.272 135.002 283.654C132.583 284.163 130.291 282.763 128.381 281.362C126.344 279.834 124.561 278.179 122.396 276.906C120.232 275.632 117.813 274.868 115.393 274.868C113.101 274.868 110.809 275.632 109.027 277.033C107.499 278.306 106.353 279.962 104.952 281.362C103.552 282.89 101.896 284.163 99.7316 283.909C97.0577 283.654 95.0204 281.617 93.3651 279.707C91.7098 277.797 90.0545 275.887 87.7625 274.996C85.5979 274.104 83.1786 273.977 80.8867 274.741C76.0481 276.396 73.8836 281.362 69.809 284.163C67.6444 285.564 65.2251 286.201 62.8058 285.309C60.2592 284.418 58.4766 282.254 57.0759 280.089C56.4393 278.943 55.8026 277.797 55.166 276.778C55.0386 276.524 54.784 276.524 54.5293 276.651C53.1287 277.924 51.728 279.198 50.3274 280.471C50.2 280.598 50.2 280.853 50.3274 280.98C53.0013 285.564 56.1846 290.53 61.4051 292.567C63.6971 293.459 66.371 293.713 68.7903 292.949C71.2095 292.058 72.9922 290.148 74.6475 288.238C76.3028 286.201 77.9581 283.909 80.25 282.636C81.396 281.999 82.6693 281.49 83.9426 281.617C85.3433 281.617 86.6166 282.254 87.6352 283.017C89.9272 284.545 91.3278 286.837 93.2377 288.875C95.0204 290.785 97.185 292.185 99.8589 292.44C102.278 292.695 104.698 291.931 106.48 290.275C108.135 288.875 109.409 286.965 110.809 285.309C112.337 283.654 114.12 282.126 116.539 282.254C119.595 282.508 121.887 284.927 123.924 286.965C125.834 289.002 127.744 290.785 130.418 291.676C132.838 292.567 135.511 292.44 137.676 291.167C139.968 289.893 141.496 287.729 143.151 285.946C144.934 284.036 147.481 281.872 150.409 282.381C152.701 282.763 154.356 284.673 155.884 286.328C157.412 287.983 158.94 289.384 161.105 290.275C164.925 291.676 169.636 290.912 172.819 288.365C172.819 290.275 172.819 292.313 172.819 294.223C172.819 297.024 172.692 299.825 172.692 302.626C160.341 302.372 148.117 302.244 135.766 302.244C122.651 302.372 109.536 302.626 96.421 303.008C89.9271 303.263 83.4333 303.518 76.8122 303.9C73.5016 304.027 70.1909 304.282 66.8803 304.409C64.079 304.536 61.1505 304.791 58.3492 304.409C55.548 304.154 52.874 303.263 50.582 301.608C48.5447 300.08 46.8895 298.042 45.6162 295.878C42.6876 290.657 42.3056 284.418 42.1782 278.561C41.7963 265.573 41.6689 252.585 41.2869 239.47C41.0323 226.483 40.6503 213.368 40.523 200.38C40.3956 193.886 40.5229 187.52 41.0322 181.153C41.2869 177.97 41.6689 174.659 42.1782 171.476C42.4329 170.075 42.5603 168.675 43.0696 167.401C43.5789 166.001 44.5975 164.982 45.8708 164.218C48.4174 162.818 51.346 162.054 54.1473 161.417C57.0759 160.78 60.1318 160.398 63.1878 160.144C69.427 159.634 75.7935 159.507 82.0327 159.38C95.1477 158.998 108.263 158.743 121.378 158.616C134.493 158.488 147.481 158.488 160.596 158.616C163.142 158.616 165.561 158.616 167.981 158.743C168.49 160.016 168.617 161.417 168.745 162.945ZM118.322 152.122C109.663 151.994 100.878 151.994 92.2191 152.249C92.3464 143.081 92.4738 133.913 92.6011 124.746C92.6011 122.836 92.6011 120.798 92.7285 118.888C94.1291 118.888 95.4023 118.888 96.803 118.761C99.3496 118.506 101.896 117.488 103.042 115.196C103.679 113.923 103.933 112.395 104.061 110.994C104.315 109.211 104.443 107.429 104.697 105.773C105.589 98.6429 106.48 91.5124 107.244 84.3819C107.244 84.1273 107.371 83.7453 107.371 83.4906C109.027 83.4906 110.555 83.3633 112.21 83.3633C113.229 83.3633 114.247 83.2359 115.266 83.2359C115.139 93.8044 124.179 102.208 132.583 107.429C137.676 110.612 143.024 113.159 147.99 116.597C152.956 119.907 157.158 123.982 160.214 129.202C164.288 136.205 166.198 144.227 167.344 152.249C151.173 152.631 134.747 152.249 118.322 152.122ZM124.561 78.0154C124.434 69.4843 124.179 60.9531 123.67 52.5493C123.542 50.7667 123.415 48.8567 123.415 47.0741C123.415 47.0741 123.542 47.2014 123.67 47.2014C124.179 47.5834 124.688 47.9654 125.07 48.6021C125.58 49.366 125.707 50.2574 125.834 51.1487C126.216 55.0959 126.598 59.0432 126.853 62.9904C127.108 66.8103 127.617 70.7576 126.98 74.5775C126.853 75.4688 126.598 76.3601 126.216 77.1241C125.707 77.5061 125.198 77.8881 124.561 78.0154ZM109.663 78.5247C109.281 69.6116 109.154 60.6985 109.154 51.9126C109.154 49.748 109.154 47.5834 109.281 45.2915C110.937 45.4188 112.465 45.4188 114.12 45.5461C113.865 54.3319 113.865 63.2451 114.247 72.0309C114.375 74.1955 114.502 76.3601 114.629 78.5247C112.847 78.3974 111.319 78.3974 109.663 78.5247Z" fill="black"/>
</svg>
